<?xml version="1.0" encoding="UTF-8"?>
<svg width="81px" height="85px" viewBox="0 0 81 85" version="1.1" xmlns="http://www.w3.org/2000/svg" xmlns:xlink="http://www.w3.org/1999/xlink">
    <!-- Generator: Sketch 56.3 (81716) - https://sketch.com -->
    <title>Group 11</title>
    <desc>Created with Sketch.</desc>
    <g id="Index" stroke="none" stroke-width="1" fill="none" fill-rule="evenodd">
        <g id="st1" transform="translate(-802.000000, -272.000000)">
            <g id="Group-4" transform="translate(459.000000, 29.000000)">
                <g id="Group-Copy" transform="translate(343.000000, 243.000000)">
                    <g id="Group-2">
                        <g id="Group-11">
                            <circle id="Oval" fill="#E3E3E3" opacity="0.400000006" cx="40.5" cy="44.5" r="40.5"></circle>
                            <circle id="Oval" fill="#D0D0D0" cx="40.5" cy="39.5" r="38.5"></circle>
                            <circle id="Oval" fill="#F2F2F2" cx="37" cy="36" r="36"></circle>
                            <circle id="Oval" fill="#E6E6E6" cx="39.5" cy="38.5" r="33.5"></circle>
                            <path d="M26.9793709,6.27157867 C28.0129365,5.88194308 29.1666691,6.40395151 29.5563046,7.43751712 C29.9459402,8.47108274 29.4239318,9.62481528 28.3903662,10.0144509 C27.2490916,10.4446908 26.1348376,10.9410392 25.0526725,11.5006275 C24.071518,12.007983 22.8648422,11.6238931 22.3574866,10.6427387 C21.850131,9.66158418 22.234221,8.45490837 23.2153754,7.94755281 C24.4355949,7.31657659 25.6921776,6.75682733 26.9793709,6.27157867 Z M16.5995612,12.3730508 C17.4432523,11.6601279 18.7051373,11.7661364 19.4180602,12.6098275 C20.1309832,13.4535186 20.0249747,14.7154036 19.1812836,15.4283265 C16.1032927,18.0292433 13.544238,21.1980002 11.6559917,24.7561057 C11.1382044,25.7317953 9.92750214,26.1029983 8.95181263,25.5852109 C7.97612312,25.0674235 7.60492009,23.8567213 8.12270746,22.8810318 C10.2505191,18.8715028 13.1328755,15.3024166 16.5995612,12.3730508 Z" id="Shape" fill="#FFFFFF" fill-rule="nonzero" opacity="0.800000012"></path>
                        </g>
                    </g>
                </g>
            </g>
        </g>
    </g>
</svg>