<?xml version="1.0" encoding="UTF-8"?>
<svg width="987px" height="674px" viewBox="0 0 987 674" version="1.1" xmlns="http://www.w3.org/2000/svg" xmlns:xlink="http://www.w3.org/1999/xlink">
    <!-- Generator: Sketch 56.3 (81716) - https://sketch.com -->
    <title>Combined Shape</title>
    <desc>Created with Sketch.</desc>
    <g id="Index" stroke="none" stroke-width="1" fill="none" fill-rule="evenodd">
        <g id="st1" transform="translate(-467.000000, -161.000000)" fill="#E3E3E3" fill-rule="nonzero">
            <g id="Group-4" transform="translate(459.000000, 29.000000)">
                <g id="Combined-Shape-2" transform="translate(8.000000, 132.000000)">
                    <path d="M546.616966,77.1403077 L546.08773,80.0932568 C543.427615,79.6165026 540.815579,79.2109942 538.251643,78.8766967 L538.639514,75.9018763 C541.251266,76.2424082 543.91041,76.6552302 546.616966,77.1403077 Z M529.58834,74.9981823 L529.385026,77.9912849 C526.693826,77.8084782 524.060785,77.7115174 521.485909,77.7003336 L521.498939,74.7003619 C524.138041,74.7118247 526.834507,74.8111211 529.58834,74.9981823 Z M512.366789,75.0290982 L512.601688,78.0198878 C509.925592,78.2300708 507.319677,78.5435465 504.783873,78.9602085 L504.29746,75.999904 C506.917542,75.5693941 509.607342,75.2458277 512.366789,75.0290982 Z M495.354879,77.9593779 L496.157344,80.8500611 C493.598258,81.5604737 491.120487,82.3909353 488.723806,83.3413913 L487.61788,80.5526768 C490.114554,79.5625667 492.693628,78.698152 495.354879,77.9593779 Z M479.294721,85.0236561 L481.166995,87.3677107 C479.431282,88.7540816 477.678698,90.5359199 475.747067,92.8386101 L473.448661,90.9105723 C475.498428,88.4670532 477.384892,86.5490994 479.294721,85.0236561 Z M467.89926,98.1166314 L470.31928,99.8896252 C469.80795,100.587557 467.888246,103.220692 468.015853,103.045886 C467.060722,104.354303 466.322867,105.357986 465.58332,106.351567 L463.17678,104.56032 C463.909846,103.575447 464.642657,102.578623 465.59278,101.277068 C465.463227,101.45454 467.385494,98.8178891 467.89926,98.1166314 Z M457.679935,111.62005 L459.995846,113.527026 C458.23133,115.669928 456.467247,117.684126 454.65224,119.61326 L452.467274,117.557555 C454.235096,115.678573 455.955906,113.713782 457.679935,111.62005 Z M446.119419,123.736617 L448.11074,125.980417 C447.977305,126.09869 447.977305,126.09869 447.843302,126.21687 C446.178037,127.683558 443.974043,129.165386 441.224307,130.6752 L439.780417,128.045527 C442.350985,126.63409 444.378019,125.271239 445.860425,123.965605 C445.990173,123.851176 445.990173,123.851176 446.119419,123.736617 Z M431.795238,131.853778 L432.965959,134.615918 C430.676319,135.586371 428.172023,136.570834 425.452734,137.569588 L424.418436,134.753522 C427.093443,133.771032 429.55249,132.804357 431.795238,131.853778 Z M415.966399,137.676114 L416.899326,140.527368 C415.889763,140.857695 414.857857,141.189546 413.803602,141.522923 L412.899086,138.662529 C413.94395,138.332122 414.96639,138.003316 415.966399,137.676114 Z M723,104.131483 L726.448221,101.832669 L732.478852,105.122104 L731.521148,106.877896 L726.551779,104.167331 L722.071843,107.153955 L716.043779,104.139923 L711.514496,106.857493 L710.485504,105.142507 L715.956221,101.860077 L721,104.381966 L721,88.5 L719.445752,88.5 L719.152002,88.0299989 C717.64913,85.6254042 716.242375,84.5 715,84.5 C712.132451,84.5 709,79.9057381 709,77 C709,72.6960975 711.369096,66.5 715,66.5 C715.690131,66.5 715.985345,66.1352288 716.535418,64.647324 C716.560449,64.579618 716.602163,64.4660551 716.671315,64.2780375 C716.726748,64.1278323 716.771682,64.007948 716.816654,63.8910209 C717.814828,61.2957684 719.177047,60 722,60 C727.165231,60 731,64.017377 731,67.5 C731,67.6172696 731.132041,67.807107 731.538533,68.1331477 C731.777298,68.324657 732.882644,69.0994833 733.1,69.2625 C734.998732,70.6865489 736,72.2051389 736,74.5 C736,79.4788347 733.210464,84.5 730,84.5 C729.296573,84.5 728.524495,85.0147189 727.332107,86.2071068 C726.607118,86.9484151 726.231685,87.3238475 725.869541,87.6342566 C725.216562,88.1939534 724.64819,88.5 724,88.5 L723,88.5 L723,104.131483 Z M723,86.5 L724,86.5 C724.171834,86.5 724.4445,86.2662868 725.917893,84.7928932 C727.475505,83.2352811 728.578427,82.5 730,82.5 C731.789536,82.5 734,78.5211653 734,74.5 C734,72.9406944 733.343659,71.9452446 731.9,70.8625 C731.729959,70.7349692 730.586839,69.9336648 730.287162,69.6932986 C729.453172,69.0243694 729,68.3728348 729,67.5 C729,65.1016706 726.039314,62 722,62 C720.156287,62 719.415941,62.7042316 718.683346,64.6089791 C718.64214,64.7161129 718.600171,64.8280876 718.54762,64.9704832 C718.479938,65.154507 718.43727,65.2706688 718.411327,65.3408417 C717.594318,67.5507837 716.826105,68.5 715,68.5 C712.998551,68.5 711,73.7269794 711,77 C711,78.9275952 713.435731,82.5 715,82.5 C716.976113,82.5 718.805406,83.8766042 720.545502,86.5 L721,86.5 L721,73 L723,73 L723,86.5 Z M238.755491,131.828347 L252.287809,112.209096 L249.100589,107.586659 L250.747126,106.451354 L253.502688,110.447756 L256.272395,106.432216 L257.91875,107.567784 L254.717285,112.20929 L268.239125,131.820065 C269.083761,133.045045 268.814653,134.746336 267.678574,135.603517 C267.455224,135.795051 267.04585,136.113266 266.463567,136.51569 C265.504909,137.178231 264.400335,137.839018 263.162664,138.455204 C262.050285,139.009012 260.880668,139.500548 259.658631,139.913423 C258.471092,140.314643 257.388946,139.467197 256.057254,137.756815 C255.641317,137.222599 255.208962,136.603665 254.764872,135.915755 C254.335105,135.250034 253.912005,134.547705 253.506782,133.838973 C253.108732,134.54578 252.693114,135.246141 252.270849,135.910102 C251.830413,136.602634 251.401594,137.225241 250.989036,137.761925 C249.67115,139.476323 248.598321,140.323898 247.428036,139.914934 C246.144507,139.493832 244.91786,138.983535 243.753776,138.403276 C242.538959,137.797727 241.454426,137.148351 240.512843,136.497231 C239.94084,136.101681 239.538486,135.78883 239.37739,135.646982 C238.178808,134.765786 237.910062,133.054055 238.755491,131.828347 Z M266.592588,132.95537 L253.502406,113.97063 L240.401846,132.963916 C240.16489,133.307456 240.242301,133.800512 240.620712,134.082201 C240.657384,134.11365 240.74051,134.18167 240.868324,134.281053 C241.088362,134.452144 241.349643,134.644271 241.650383,134.852238 C242.516651,135.451276 243.520029,136.05206 244.64601,136.613326 C245.72582,137.151578 246.863153,137.62472 248.069525,138.020698 C247.971499,137.986458 248.041315,137.961717 248.244088,137.801518 C248.566513,137.54679 248.962206,137.116944 249.403394,136.543016 C249.776184,136.058066 250.172417,135.48277 250.583232,134.836813 C251.075206,134.063243 251.561679,133.230927 252.019809,132.39819 C252.180299,132.106468 252.325641,131.835784 252.453096,131.593302 C252.528954,131.448984 252.581547,131.347022 252.608164,131.294547 L253.492929,129.550255 L254.388898,131.288817 C254.415938,131.341286 254.469366,131.44324 254.54642,131.58755 C254.67589,131.830023 254.823516,132.100698 254.986512,132.392411 C255.451802,133.225136 255.94576,134.057444 256.445155,134.831022 C256.859503,135.472859 257.259167,136.044995 257.635335,136.528133 C258.083921,137.104283 258.486335,137.53645 258.814992,137.793826 C259.026996,137.959849 259.107698,137.988496 259.018465,138.018644 C260.151848,137.635722 261.237963,137.179278 262.271304,136.664819 C263.419998,136.092931 264.443271,135.480781 265.326477,134.870386 C265.63313,134.658454 265.899531,134.462647 266.123877,134.288258 C266.254262,134.186907 266.33911,134.11749 266.424255,134.046937 C266.752388,133.79868 266.831072,133.301244 266.592588,132.95537 Z M289.022411,65.3571614 L288.961744,65.4020621 L288.910931,65.4728782 L288.829502,65.4999356 L288.769783,65.5441339 L288.755315,65.5245862 L288.824696,65.5015325 C288.806749,65.5161205 288.788441,65.5303251 288.769783,65.5441339 L288.755315,65.5245862 L288.602964,65.5752094 C287.98357,65.7810216 287.299274,65.5609077 286.914708,65.0217146 L284.941053,62.2544892 C284.563389,61.724973 284.564852,61.0175923 284.940997,60.493368 L285.033153,60.3649322 L285.018708,60.3454142 C285.037608,60.3314256 285.056798,60.317904 285.076259,60.3048563 L285.033153,60.3649322 L285.018708,60.3454142 L285.079375,60.3005136 L285.130188,60.2296975 L285.211617,60.2026401 L285.271336,60.1584417 L285.285804,60.1779895 L285.438155,60.1273662 C286.057549,59.9215541 286.741845,60.141668 287.126411,60.6808611 L289.100066,63.4480864 C289.47773,63.9776026 289.476268,64.6849834 289.100122,65.2092077 L289.007966,65.3376434 L289.022411,65.3571614 Z M285.162068,70.58003 L285.137575,70.6568182 L285.137343,70.7395609 L285.089927,70.8062022 L285.065573,70.8825578 L285.041144,70.8747659 L284.953044,70.9985878 C284.575118,71.5297528 283.894674,71.7613481 283.2651,71.5529676 L280.07166,70.4959816 C279.449831,70.2901645 279.037929,69.7100789 279.039752,69.0614805 L279.040175,68.9108483 L279.01592,68.9031118 C279.023515,68.8793004 279.031677,68.8557232 279.040396,68.8323979 L279.040175,68.9108483 L279.01592,68.9031118 L279.040413,68.8263236 L279.040645,68.7435808 L279.088061,68.6769395 L279.112416,68.600584 L279.136844,68.6083759 L279.224944,68.484554 C279.602871,67.953389 280.283314,67.7217936 280.912888,67.9301741 L284.106328,68.9871601 C284.728157,69.1929773 285.140059,69.7730629 285.138236,70.4216613 L285.137813,70.5722935 L285.162068,70.58003 Z M285.065573,77.1174422 C285.073082,77.1409838 285.080006,77.1646598 285.086345,77.1884503 L285.041458,77.125134 L285.065573,77.1174422 L285.089756,77.1932619 L285.137308,77.2603367 L285.137401,77.3426354 L285.162068,77.41997 L285.137497,77.4278073 L285.137667,77.5782257 C285.138394,78.2234496 284.72977,78.8064888 284.106328,79.0128399 L280.912888,80.0698259 C280.284973,80.2776574 279.603565,80.0505034 279.22453,79.5158526 L279.13653,79.3917242 L279.112416,79.399416 C279.104907,79.3758744 279.097982,79.3521984 279.091643,79.3284079 L279.13653,79.3917242 L279.112416,79.399416 L279.088232,79.3235963 L279.04068,79.2565215 L279.040587,79.1742228 L279.01592,79.0968882 L279.040491,79.0890509 L279.040322,78.9386325 C279.039595,78.2934087 279.448218,77.7103694 280.07166,77.5040184 L283.2651,76.4470324 C283.893015,76.2392008 284.574423,76.4663548 284.953458,77.0010056 L285.041458,77.125134 L285.065573,77.1174422 Z M288.769783,82.4558661 C288.788295,82.469567 288.80646,82.4836634 288.824267,82.4981424 L288.755503,82.4751606 L288.769783,82.4558661 L288.829077,82.4997501 L288.910885,82.5270915 L288.961304,82.5976124 L289.022411,82.6428386 L289.007776,82.6626131 L289.099615,82.7910682 C289.472893,83.3131731 289.478661,84.0210925 289.100066,84.5519136 L287.126411,87.3191389 C286.742818,87.8569681 286.060422,88.0812147 285.438004,87.8731937 L285.285616,87.8222637 L285.271336,87.8415583 C285.252824,87.8278573 285.23466,87.8137609 285.216852,87.7992819 L285.285616,87.8222637 L285.271336,87.8415583 L285.212042,87.7976743 L285.130234,87.7703329 L285.079815,87.6998119 L285.018708,87.6545858 L285.033343,87.6348112 L285.07671,87.6954693 C285.057099,87.6823164 285.037759,87.668686 285.018708,87.6545858 L285.033343,87.6348112 L284.941504,87.5063562 C284.568226,86.9842512 284.562459,86.2763318 284.941053,85.7455108 L286.914708,82.9782854 C287.298301,82.4404562 287.980697,82.2162097 288.603115,82.4242306 L288.755503,82.4751606 L288.769783,82.4558661 Z M300.977589,82.6428386 C300.996489,82.62885 301.015679,82.6153284 301.03514,82.6022806 L300.992034,82.6623566 L300.977589,82.6428386 L301.038256,82.5979379 L301.089069,82.5271218 L301.170498,82.5000644 L301.230217,82.4558661 L301.244685,82.4754138 L301.175304,82.4984675 C301.193251,82.4838795 301.211559,82.4696749 301.230217,82.4558661 L301.244685,82.4754138 L301.397036,82.4247906 C302.01643,82.2189784 302.700726,82.4390923 303.085292,82.9782854 L305.058947,85.7455108 C305.436611,86.275027 305.435148,86.9824077 305.059003,87.506632 L304.966847,87.6350678 L304.981292,87.6545858 L304.920625,87.6994864 L304.869812,87.7703025 L304.788383,87.7973599 L304.728664,87.8415583 L304.714196,87.8220105 L304.783577,87.7989568 C304.765629,87.8135448 304.747322,87.8277494 304.728664,87.8415583 L304.714196,87.8220105 L304.561845,87.8726338 C303.942451,88.0784459 303.258155,87.858332 302.873589,87.3191389 L300.899934,84.5519136 C300.52227,84.0223974 300.523732,83.3150166 300.899878,82.7907923 L300.992034,82.6623566 L300.977589,82.6428386 Z M304.837932,77.41997 C304.845527,77.3961586 304.853689,77.3725814 304.862408,77.3492561 L304.862187,77.4277065 L304.837932,77.41997 L304.862425,77.3431818 L304.862657,77.2604391 L304.910073,77.1937978 L304.934427,77.1174422 L304.958856,77.1252341 L305.046956,77.0014122 C305.424882,76.4702472 306.105326,76.2386519 306.7349,76.4470324 L309.92834,77.5040184 C310.550169,77.7098355 310.962071,78.2899211 310.960248,78.9385195 L310.959825,79.0891517 L310.98408,79.0968882 C310.976485,79.1206996 310.968323,79.1442768 310.959604,79.1676021 L310.959825,79.0891517 L310.98408,79.0968882 L310.959587,79.1736764 L310.959355,79.2564192 L310.911939,79.3230605 L310.887584,79.399416 L310.863156,79.3916241 L310.775056,79.515446 C310.397129,80.046611 309.716686,80.2782064 309.087112,80.0698259 L305.893672,79.0128399 C305.271843,78.8070227 304.859941,78.2269371 304.861764,77.5783387 L304.862187,77.4277065 L304.837932,77.41997 Z M304.934427,70.8825578 L304.910244,70.8067381 L304.862692,70.7396633 L304.862599,70.6573646 L304.837932,70.58003 L304.862503,70.5721927 L304.862333,70.4217743 C304.861606,69.7765504 305.27023,69.1935112 305.893672,68.9871601 L309.087112,67.9301741 C309.715027,67.7223426 310.396435,67.9494966 310.77547,68.4841474 L310.86347,68.6082758 L310.887584,68.600584 L310.911768,68.6764037 L310.95932,68.7434785 L310.959413,68.8257772 L310.98408,68.9031118 L310.959509,68.9109491 L310.95942,68.8318417 C310.968201,68.8553489 310.976425,68.8791116 310.98408,68.9031118 L310.959509,68.9109491 L310.959678,69.0613675 C310.960405,69.7065913 310.551782,70.2896306 309.92834,70.4959816 L306.7349,71.5529676 C306.106985,71.7607992 305.425577,71.5336452 305.046542,70.9989944 L304.958542,70.874866 L304.934427,70.8825578 Z M301.230217,65.5441339 C301.211705,65.530433 301.19354,65.5163366 301.175733,65.5018576 L301.244497,65.5248394 L301.230217,65.5441339 L301.170923,65.5002499 L301.089115,65.4729085 L301.038696,65.4023876 L300.977589,65.3571614 L300.992224,65.3373869 L301.035591,65.398045 C301.01598,65.384892 300.99664,65.3712617 300.977589,65.3571614 L300.992224,65.3373869 L300.900385,65.2089318 C300.527107,64.6868269 300.521339,63.9789075 300.899934,63.4480864 L302.873589,60.6808611 C303.257182,60.1430319 303.939578,59.9187853 304.561996,60.1268063 L304.714384,60.1777363 L304.728664,60.1584417 C304.747176,60.1721427 304.76534,60.1862391 304.783148,60.2007181 L304.714384,60.1777363 L304.728664,60.1584417 L304.787958,60.2023257 L304.869766,60.2296671 L304.920185,60.3001881 L304.981292,60.3454142 L304.966657,60.3651888 L305.058496,60.4936438 C305.431774,61.0157488 305.437541,61.7236682 305.058947,62.2544892 L303.085292,65.0217146 C302.701699,65.5595438 302.019303,65.7837903 301.396885,65.5757694 L301.244497,65.5248394 L301.230217,65.5441339 Z M293.655709,58.3483105 C293.655709,57.6056954 294.261094,57 295,57 C295.744203,57 296.344291,57.5971557 296.344291,58.3483105 L296.344291,62.0905573 C296.344291,62.8331724 295.738906,63.4388678 295,63.4388678 C294.255797,63.4388678 293.655709,62.8417121 293.655709,62.0905573 L293.655709,58.3483105 Z M296.344291,89.6516895 C296.344291,90.3943046 295.738906,91 295,91 C294.255797,91 293.655709,90.4028443 293.655709,89.6516895 L293.655709,85.9094427 C293.655709,85.1668276 294.261094,84.5611322 295,84.5611322 C295.744203,84.5611322 296.344291,85.1582879 296.344291,85.9094427 L296.344291,89.6516895 Z M626.947467,116.068726 L629.052533,113.931274 C630.992476,115.841824 632.908562,117.675116 634.800761,119.431144 L632.76004,121.630112 C630.845795,119.853624 628.908281,117.99983 626.947467,116.068726 Z M639.520103,127.665189 L641.471519,125.386598 C643.546412,127.163565 645.590554,128.841609 647.603877,130.420731 L645.752424,132.781265 C643.70463,131.175106 641.627213,129.469747 639.520103,127.665189 Z M653.069827,138.185519 L654.775417,135.717532 C657.031418,137.276621 659.245154,138.701458 661.416458,139.992105 L659.883583,142.570921 C657.652228,141.24458 655.381031,139.782759 653.069827,138.185519 Z M667.965838,146.863636 L669.230553,144.14325 C671.715941,145.298714 674.138645,146.25972 676.49839,147.026726 L675.571034,149.879797 C673.093367,149.074461 670.558393,148.068922 667.965838,146.863636 Z M684.654505,151.968185 L685.037693,148.992757 C685.111907,149.002268 685.111907,149.002268 685.186052,149.011583 C687.643607,149.318778 690.165938,149.423605 692.789607,149.339733 L692.88546,152.338202 C690.109859,152.42693 687.431588,152.315622 684.813948,151.988417 C684.734254,151.978405 684.734254,151.978405 684.654505,151.968185 Z M702.031151,151.411945 L701.552054,148.450448 C703.956477,148.061471 706.477731,147.553649 709.300825,146.902669 L709.974908,149.825957 C707.091414,150.490865 704.506868,151.011435 702.031151,151.411945 Z M718.748706,147.645085 L717.999043,144.74026 C718.452407,144.623241 718.452407,144.623241 718.906368,144.50608 C722.058829,143.692637 723.821732,143.246373 725.779423,142.774853 L726.481899,145.691449 C724.544353,146.158116 722.793531,146.601322 719.655919,147.410933 C719.202257,147.528017 719.202257,147.528017 718.748706,147.645085 Z M735.215407,143.832601 L734.69157,140.878689 C737.497448,140.381104 740.160972,140.021275 742.757043,139.801674 L743.009909,142.790998 C740.509349,143.00252 737.935368,143.350252 735.215407,143.832601 Z M751.78039,142.637363 L751.946195,139.641949 C754.419725,139.778866 756.852852,140.069225 759.26116,140.522812 C759.552292,140.57774 759.829142,140.631477 760.108476,140.687256 L759.521016,143.629176 C759.252159,143.575489 758.985729,143.523774 758.70543,143.47089 C756.428218,143.041994 754.125104,142.76715 751.78039,142.637363 Z M768.086253,145.827059 L768.979223,142.96304 C771.497978,143.748361 774.046468,144.65811 776.624722,145.692168 L775.507985,148.476571 C773.002296,147.471617 770.528375,146.588487 768.086253,145.827059 Z M783.63172,152.106987 L784.955078,149.414641 C787.314029,150.574128 789.696896,151.832711 792.103725,153.190348 L790.629812,155.803312 C788.271796,154.473209 785.939082,153.241116 783.63172,152.106987 Z M798.265985,160.396918 L799.87994,157.868055 C802.094635,159.281503 804.328926,160.775394 806.582845,162.349716 L804.864965,164.809165 C802.644819,163.258433 800.445148,161.787689 798.265985,160.396918 Z M812.099491,170.090342 L813.91611,167.702897 C815.246917,168.715515 816.584353,169.755163 817.928422,170.821841 L816.063496,173.171745 C814.735299,172.117664 813.413962,171.09053 812.099491,170.090342 Z M426,236.985481 L426,250.79815 L430.448221,247.832669 L436.478852,251.122104 L435.521148,252.877896 L430.551779,250.167331 L426.071843,253.153955 L420.043779,250.139923 L415.514496,252.857493 L414.485504,251.142507 L419.956221,247.860077 L424,249.881966 L424,236.930597 C416.732517,236.172364 411,229.30769 411,221.589459 C411,214.061807 419.493679,208 428.236297,208 C435.84014,208 440,213.906091 440,222.619562 C440,230.347692 433.786394,236.6447 426,236.985481 Z M426,234.983243 C432.689696,234.645187 438,229.234629 438,222.619562 C438,214.890867 434.555197,210 428.236297,210 C420.481394,210 413,215.339354 413,221.589459 C413,228.240455 417.880289,234.154977 424,234.917148 L424,228.259743 L421.858633,226.265218 L423.221777,224.801716 L421.858633,226.265218 L418.824172,223.438841 L420.187316,221.975339 L423.221777,224.801716 L424,225.526573 L424,219 L426,219 L426,221.866681 L430.187136,218.243779 L431.513003,219.740959 C431.442583,219.804783 431.31107,219.92325 431.126259,220.088575 C430.818975,220.36346 430.474024,220.669596 430.099185,220.999209 C429.027905,221.941236 427.93094,222.88341 426.870012,223.763911 C426.793941,223.827009 426.793941,223.827009 426.717693,223.890102 L426,223.041689 L426,227.389425 L426.256239,227.628093 L426,227.903196 L426,228.413732 L428.054296,226.782604 L429.297955,228.348909 L426.172559,230.830499 L426,230.613173 L426,234.983243 Z M297,268.881966 L297,261.027778 L280.401039,261.027778 L282.329698,259.285689 C283.05474,258.630785 283.764606,257.940026 284.458444,257.217673 C286.349952,255.248429 288.041716,253.13508 289.507782,251.022104 C289.824015,250.566332 290.115391,250.130964 290.381197,249.720238 L283.461677,249.720238 L285.704498,247.937425 C286.735004,247.118278 287.736169,246.213737 288.704842,245.237891 C290.34048,243.590141 291.806709,241.821475 293.079664,240.053247 C293.285418,239.767441 293.479103,239.491256 293.660445,239.22619 L286.846301,239.22619 L289.116328,237.440265 C291.583574,235.499178 293.769802,233.037504 295.643617,230.325349 C296.301182,229.373591 296.872046,228.459156 297.353162,227.616082 C297.520789,227.322346 297.664965,227.059059 297.785338,226.830471 C297.856231,226.695844 297.904375,226.600953 297.924271,226.560203 L299.720478,226.560203 C299.740209,226.600648 299.78831,226.695463 299.859112,226.829925 C299.979408,227.058385 300.123516,227.321566 300.29108,227.615216 C300.772118,228.458214 301.342932,229.37263 302.000475,230.324415 C303.874413,233.036915 306.060859,235.49894 308.528409,237.440265 L310.798436,239.22619 L303.984292,239.22619 C304.165634,239.491256 304.359319,239.767441 304.565073,240.053247 C305.838028,241.821475 307.304257,243.590141 308.939895,245.237891 C309.908568,246.213737 310.909733,247.118278 311.940239,247.937425 L314.183059,249.720238 L307.26354,249.720238 C307.529346,250.130964 307.820722,250.566332 308.136955,251.022104 C309.60302,253.13508 311.294785,255.248429 313.186293,257.217673 C313.880131,257.940026 314.589997,258.630785 315.315039,259.285689 L317.243697,261.027778 L299,261.027778 L299,269 L297.236068,269 L298.928157,269.846045 L303.448221,266.832669 L309.478852,270.122104 L308.521148,271.877896 L303.551779,269.167331 L299.071843,272.153955 L293.043779,269.139923 L288.514496,271.857493 L287.485504,270.142507 L292.956221,266.860077 L297,268.881966 Z M297.289088,231.462197 C295.842042,233.556648 294.215484,235.513195 292.412972,237.22619 L297.23695,237.22619 L296.359318,238.73019 C296.282006,238.862679 296.136564,239.100794 295.92552,239.429535 C295.57757,239.971533 295.169176,240.573933 294.702806,241.221755 C293.371891,243.070493 291.839646,244.918793 290.124263,246.646878 C289.759706,247.014134 289.390435,247.372137 289.016529,247.720238 L293.875723,247.720238 L293.041181,249.209171 C292.953958,249.364789 292.788727,249.646193 292.548269,250.035508 C292.15117,250.678434 291.684505,251.39329 291.150988,252.162225 C289.628071,254.357138 287.871312,256.551678 285.90084,258.60313 C285.763773,258.745831 285.62607,258.887389 285.487734,259.027778 L312.157002,259.027778 C312.018667,258.887389 311.880964,258.745831 311.743897,258.60313 C309.773425,256.551678 308.016666,254.357138 306.493749,252.162225 C305.960232,251.39329 305.493566,250.678434 305.096468,250.035508 C304.85601,249.646193 304.690779,249.364789 304.603556,249.209171 L303.769014,247.720238 L308.628208,247.720238 C308.254302,247.372137 307.885031,247.014134 307.520474,246.646878 C305.805091,244.918793 304.272846,243.070493 302.941931,241.221755 C302.475561,240.573933 302.067167,239.971533 301.719217,239.429535 C301.508173,239.100794 301.36273,238.862679 301.285419,238.73019 L300.407787,237.22619 L305.231764,237.22619 C303.428958,235.512918 301.802174,233.556024 300.354971,231.461216 C299.781423,230.631013 299.270172,229.827134 298.822368,229.068705 C298.374372,229.827459 297.862895,230.631671 297.289088,231.462197 Z M295.5,84 C290.253295,84 286,79.7467051 286,74.5 C286,69.2532949 290.253295,65 295.5,65 C300.746705,65 305,69.2532949 305,74.5 C305,79.7467051 300.746705,84 295.5,84 Z M295.5,82 C299.642136,82 303,78.6421356 303,74.5 C303,70.3578644 299.642136,67 295.5,67 C291.357864,67 288,70.3578644 288,74.5 C288,78.6421356 291.357864,82 295.5,82 Z M526,212 L526,225 L532,225 L532,216.73014 C532,215.7707 532.78313,215 533.742942,215 L544.221653,215 L544.240743,214.983789 L544.254509,215 L544.257058,215 C545.215594,215 546,215.77089 546,216.73014 L546,225 L551,225 L551,213 C551,212.662808 550.988376,212.329355 550.965486,212 L526,212 Z M526.182082,210 L549.3397,210 L548,210 L548,204.515174 C545.65154,201.720749 542.102516,200 538,200 C536.612323,200 535.262797,200.262422 534,200.738688 L534,208 L526.738688,208 C526.494999,208.64613 526.307295,209.314966 526.182082,210 Z M542.370803,225 L538.943872,222.105594 L535.535393,225 L542.370803,225 Z M544,223.758122 L544,217.81204 L540.489469,220.793107 L544,223.758122 Z M534,217.929971 L534,223.680006 L537.394786,220.797227 L534,217.929971 Z M535.998489,217 L538.940383,219.48474 L541.866435,217 L535.998489,217 Z M548,201.664951 L548,196.5 L548,195 L548.052886,195 C548.485287,190.952514 551.511587,188 555,188 L556,188 C559.769841,188 563,191.448119 563,196 L563,227 L551,227 L524,227 L524,212 C524,209.469788 524.736319,207.055584 526,204.966347 L526,197.730994 C526,196.754642 526.820676,196 527.793861,196 L532.206139,196 C533.179324,196 534,196.754642 534,197.730994 L534,198.622385 C535.276315,198.21874 536.620926,198 538,198 C541.900221,198 545.377711,199.365807 548,201.664951 Z M553,225 L561,225 L561,197 L550,197 L550,203.816729 C551.191015,205.393765 552.069915,207.230155 552.558592,209.24779 C552.727579,209.48252 552.877007,209.736652 553,210 L553,213 L553,225 Z M550.071051,208 C550.047777,207.940961 550.024092,207.882161 550,207.823602 L550,208 L550.071051,208 Z M532,199.431447 L532,198 L528,198 L528,202.369891 C529.154206,201.174204 530.509542,200.17272 532,199.431447 Z M532,201.712428 C530.407121,202.675961 529.031036,203.996869 528,205.546896 L528,206 L532,206 L532,201.712428 Z M550.067039,195 L560.932961,195 C560.531621,192.054536 558.383889,190 556,190 L555,190 C552.616111,190 550.468379,192.054536 550.067039,195 Z M555.5,209 C554.082944,209 553,207.741004 553,206.256148 L553,201.743852 C553,200.258996 554.082944,199 555.5,199 C556.917056,199 558,200.258996 558,201.743852 L558,206.256148 C558,207.741004 556.917056,209 555.5,209 Z M555.5,207 C555.739984,207 556,206.697713 556,206.256148 L556,201.743852 C556,201.302287 555.739984,201 555.5,201 C555.260016,201 555,201.302287 555,201.743852 L555,206.256148 C555,206.697713 555.260016,207 555.5,207 Z M852.500478,230.962133 L855.499522,231.037867 C855.429029,233.829375 855.303165,236.514727 855.121867,239.094005 L852.12925,238.883653 C852.307335,236.350099 852.431098,233.709565 852.500478,230.962133 Z M851.225719,247.746469 L854.19785,248.154435 C853.81045,250.976746 853.340623,253.64287 852.78808,256.152996 L849.858224,255.508059 C850.393034,253.078492 850.848963,250.491233 851.225719,247.746469 Z M847.45142,263.968173 L850.272769,264.987974 C849.271632,267.757688 848.126786,270.262709 846.836697,272.502575 L844.237065,271.005274 C845.436185,268.923348 846.508148,266.577802 847.45142,263.968173 Z M838.953904,277.758156 L840.98423,279.966725 C838.828586,281.948399 836.433575,283.48339 833.805178,284.566047 L832.662589,281.792153 C834.961297,280.845297 837.056408,279.502515 838.953904,277.758156 Z M824.467275,283.110091 L824.411048,286.109564 C821.95196,286.063467 819.233142,285.767804 816.223203,285.235324 L816.745809,282.281195 C819.611053,282.788077 822.177479,283.067168 824.467275,283.110091 Z M808.121689,280.328551 L807.349846,283.227561 C804.959624,282.591181 802.407933,281.850204 799.60766,280.985235 L800.493045,278.118863 C803.257869,278.972881 805.772467,279.703087 808.121689,280.328551 Z M791.927915,275.357833 L790.98207,278.204827 C789.837537,277.824583 788.637343,277.422946 787.199762,276.939635 C786.639544,276.751292 786.067583,276.558738 785.298234,276.299544 C784.345753,275.978607 783.834606,275.806382 783.391965,275.657315 L784.34943,272.814207 C784.792328,272.96336 785.303744,273.135676 786.256041,273.456551 C787.024842,273.715561 787.596263,273.907933 788.155771,274.096038 C789.590233,274.5783 790.787208,274.97886 791.927915,275.357833 Z M775.82798,269.978302 L774.89795,272.830501 C772.137328,271.930332 769.653263,271.146013 767.298902,270.435507 L768.165641,267.563441 C770.543,268.280887 773.047651,269.071706 775.82798,269.978302 Z M759.414254,265.115108 L758.676727,268.023037 C755.93922,267.328734 753.377741,266.759278 750.96375,266.314275 L751.507615,263.363985 C753.990285,263.821648 756.615608,264.405298 759.414254,265.115108 Z M742.364428,262.220424 L742.202498,265.216051 C739.375727,265.063248 736.817548,265.161046 734.521675,265.520603 L734.057503,262.55673 C736.574088,262.162607 739.339249,262.056896 742.364428,262.220424 Z M725.17474,264.790242 L726.018314,267.669197 C723.251534,268.479902 720.756149,269.305901 718.532925,270.146507 L717.471926,267.340392 C719.770334,266.471359 722.337684,265.621538 725.17474,264.790242 Z M709.084717,271.293233 L710.651875,273.85136 C707.965969,275.496798 706.318484,277.143961 705.663693,278.733983 L702.889705,277.591619 C703.824767,275.321021 705.905013,273.241181 709.084717,271.293233 Z M628.307295,313.031814 L627.692705,315.968186 C625.005907,315.405833 622.398681,314.87877 619.871049,314.386996 L620.443983,311.442213 C622.985748,311.936737 625.606845,312.466604 628.307295,313.031814 Z M611.566425,309.802446 L611.051996,312.758011 C608.321825,312.282814 605.700694,311.855891 603.188667,311.477237 L603.635825,308.510749 C606.170821,308.892866 608.814333,309.323434 611.566425,309.802446 Z M594.662458,307.307744 L594.318546,310.287966 C591.51406,309.964333 588.881507,309.71643 586.421178,309.544182 L586.630696,306.551507 C589.137499,306.727009 591.814656,306.979113 594.662458,307.307744 Z M577.508341,306.258166 L577.550535,309.257869 C574.579296,309.299662 571.99673,309.507861 569.806426,309.879703 L569.304308,306.922022 C571.658446,306.522366 574.391928,306.302001 577.508341,306.258166 Z M560.442487,310.165145 L561.812172,312.834221 C559.759411,313.887633 557.493765,315.202784 555.004619,316.776385 L553.401542,314.240612 C555.961626,312.622165 558.302899,311.263114 560.442487,310.165145 Z M545.86139,319.29834 L547.586053,321.753037 C545.57785,323.163995 543.455037,324.697312 541.127092,326.413405 L539.34698,323.998617 C541.692135,322.269837 543.832996,320.723484 545.86139,319.29834 Z M532.1123,329.407145 L533.919107,331.802024 C533.204598,332.341083 530.787921,334.166449 530.676537,334.250541 C529.404638,335.21079 528.447321,335.931982 527.529521,336.620667 L525.728961,334.221087 C526.643981,333.534488 527.599173,332.814897 528.868926,331.856268 C528.97972,331.772622 531.396995,329.946804 532.1123,329.407145 Z M518.516439,339.520487 L520.253651,341.966319 C517.511801,343.913785 515.285978,345.383954 513.449783,346.440268 L511.953835,343.839856 C513.692399,342.839707 515.845807,341.417369 518.516439,339.520487 Z M428.242425,346.159536 L425.757575,347.840464 C424.236824,345.592398 422.717842,343.419511 421.200655,341.32181 L423.631492,339.563678 C425.167308,341.687134 426.704277,343.885751 428.242425,346.159536 Z M418.173903,332.32813 L415.817719,334.185116 C414.134969,332.050006 412.454573,330.008045 410.776583,328.059236 L413.049977,326.101769 C414.756686,328.083932 416.464644,330.159385 418.173903,332.32813 Z M406.923437,319.381688 L404.768735,321.469092 C402.874911,319.514211 400.984453,317.679029 399.097465,315.96351 L401.115531,313.743734 C403.050227,315.502624 404.986161,317.381954 406.923437,319.381688 Z M394.103604,307.892402 L392.288816,310.281239 C390.127125,308.639013 387.97055,307.155476 385.819237,305.830425 L387.392533,303.276068 C389.628492,304.653255 391.865468,306.192101 394.103604,307.892402 Z M379.221906,298.961635 L378.013691,301.707581 C375.564846,300.63009 373.123111,299.760078 370.688229,299.096959 L371.476542,296.202384 C374.056953,296.905137 376.638828,297.825083 379.221906,298.961635 Z M362.357388,294.623675 L362.13711,297.615577 C361.093942,297.538773 360.051674,297.500252 359.010595,297.500001 C357.424673,297.500001 355.859829,297.532483 354.304972,297.597009 L354.180579,294.59959 C355.776862,294.533343 357.383179,294.500001 359.010957,294.500001 C360.125733,294.50027 361.241234,294.541498 362.357388,294.623675 Z M345.081063,295.343526 L345.446093,298.321236 C342.815914,298.643663 340.219528,299.058884 337.650926,299.563812 L337.07227,296.620148 C339.711127,296.10141 342.378745,295.674797 345.081063,295.343526 Z M328.193977,298.736995 L329.004147,301.625528 C326.473104,302.33543 323.968325,303.131459 321.473269,304.012964 L320.473905,301.184312 C323.030277,300.281144 325.598052,299.465094 328.193977,298.736995 Z M312.007512,304.501351 L313.190378,307.258311 C310.820864,308.274944 308.450208,309.363862 305.978916,310.561427 L304.670659,307.861711 C307.181452,306.645005 309.593442,305.5371 312.007512,304.501351 Z M296.591882,311.943306 L297.973932,314.606 C297.692739,314.75195 297.498378,314.852932 297.028067,315.097392 C296.56036,315.34055 296.56036,315.34055 296.097827,315.580968 C295.352966,315.968054 294.809876,316.249647 294.283383,316.521455 C292.938078,317.215983 291.848045,317.770092 290.832344,318.273279 L289.500586,315.585079 C290.499235,315.090339 291.575406,314.543278 292.907177,313.855736 C293.430813,313.585403 293.971773,313.304915 294.714447,312.918965 C295.176466,312.678814 295.176466,312.678814 295.644347,312.435566 C296.115167,312.190841 296.310032,312.089597 296.591882,311.943306 Z M281.397956,319.286062 L282.577892,322.044277 C280.332205,323.004959 277.855389,324.025664 275.147191,325.106539 L274.03515,322.320258 C276.721516,321.248095 279.175869,320.236647 281.397956,319.286062 Z M265.668478,325.571536 L266.733088,328.376283 C264.361498,329.276478 261.858527,330.210901 259.224141,331.179568 L258.188809,328.363881 C260.813652,327.398724 263.306887,326.467936 265.668478,325.571536 Z M249.74249,331.425797 L250.753168,334.250426 C248.328538,335.117982 245.81212,336.009467 243.203904,336.924885 L242.210394,334.094172 C244.812979,333.18073 247.323681,332.29127 249.74249,331.425797 Z M104,344.131483 L107.448221,341.832669 L113.478852,345.122104 L112.521148,346.877896 L107.551779,344.167331 L103.071843,347.153955 L97.0437785,344.139923 L92.5144958,346.857493 L91.4855042,345.142507 L96.9562215,341.860077 L102,344.381966 L102,328.5 L100.445752,328.5 L100.152002,328.029999 C98.64913,325.625404 97.2423748,324.5 96,324.5 C93.1324513,324.5 90,319.905738 90,317 C90,312.696097 92.3690961,306.5 96,306.5 C96.6901306,306.5 96.9853446,306.135229 97.5354185,304.647324 C97.5604492,304.579618 97.6021627,304.466055 97.6713152,304.278037 C97.726748,304.127832 97.7716825,304.007948 97.8166544,303.891021 C98.8148284,301.295768 100.177047,300 103,300 C108.165231,300 112,304.017377 112,307.5 C112,307.61727 112.132041,307.807107 112.538533,308.133148 C112.777298,308.324657 113.882644,309.099483 114.1,309.2625 C115.998732,310.686549 117,312.205139 117,314.5 C117,319.478835 114.210464,324.5 111,324.5 C110.296573,324.5 109.524495,325.014719 108.332107,326.207107 C107.607118,326.948415 107.231685,327.323847 106.869541,327.634257 C106.216562,328.193953 105.64819,328.5 105,328.5 L104,328.5 L104,344.131483 Z M104,326.5 L105,326.5 C105.171834,326.5 105.4445,326.266287 106.917893,324.792893 C108.475505,323.235281 109.578427,322.5 111,322.5 C112.789536,322.5 115,318.521165 115,314.5 C115,312.940694 114.343659,311.945245 112.9,310.8625 C112.729959,310.734969 111.586839,309.933665 111.287162,309.693299 C110.453172,309.024369 110,308.372835 110,307.5 C110,305.101671 107.039314,302 103,302 C101.156287,302 100.415941,302.704232 99.6833456,304.608979 C99.6421403,304.716113 99.6001705,304.828088 99.5476197,304.970483 C99.4799379,305.154507 99.4372698,305.270669 99.4113271,305.340842 C98.5943182,307.550784 97.8261055,308.5 96,308.5 C93.998551,308.5 92,313.726979 92,317 C92,318.927595 94.4357305,322.5 96,322.5 C97.9761125,322.5 99.8054059,323.876604 101.545502,326.5 L102,326.5 L102,314 L104,314 L104,326.5 Z M159.283342,352.682274 L160.716658,355.317726 C158.28178,356.641957 156.024327,357.984116 153.944377,359.343851 L152.302826,356.832813 C154.452381,355.427576 156.779194,354.044179 159.283342,352.682274 Z M144.927963,362.329761 L146.886081,364.602594 C144.781917,366.415399 142.976707,368.254563 141.469403,370.118741 L139.136572,368.232501 C140.761171,366.223259 142.691985,364.256127 144.927963,362.329761 Z M134.323633,376.369742 L137.123153,377.448022 C136.199825,379.845242 135.731353,382.284906 135.714744,384.775316 L132.71481,384.755308 C132.733852,381.900309 133.271124,379.102354 134.323633,376.369742 Z M135.062737,394.235596 L137.680547,392.770307 C138.733452,394.651372 140.241644,396.705287 142.219638,398.977919 L139.956705,400.947471 C137.853487,398.530962 136.227802,396.317041 135.062737,394.235596 Z M146.27914,407.511812 L148.361037,405.351788 C150.051323,406.980937 151.92995,408.724184 154.187323,410.767718 L152.17396,412.991762 C149.895206,410.928872 147.99474,409.165359 146.27914,407.511812 Z M158.916845,419.023697 L160.912371,416.783636 C163.480241,419.071185 165.152245,420.570167 166.875475,422.136522 L164.857609,424.356481 C163.14353,422.798443 161.477808,421.305093 158.916845,419.023697 Z M171.387233,430.444592 L173.467455,428.282955 C175.51612,430.25446 177.404763,432.142673 179.167255,433.989157 L176.997152,436.060547 C175.265602,434.246478 173.406678,432.387979 171.387233,430.444592 Z M182.930875,442.715212 L185.246625,440.808041 C187.066899,443.018279 188.695361,445.185509 190.133871,447.325722 L187.644021,448.999235 C186.262152,446.943293 184.691702,444.853267 182.930875,442.715212 Z M191.967892,456.639177 L194.700043,455.400083 C195.906887,458.061124 196.791189,460.690462 197.339308,463.297663 L194.403485,463.914869 C193.902132,461.530115 193.087414,459.107676 191.967892,456.639177 Z M194.937506,472.478601 L197.934756,472.607025 C197.81116,475.491606 197.511865,478.212682 197.036055,480.770258 L194.086661,480.221554 C194.535912,477.806737 194.819799,475.225751 194.937506,472.478601 Z M191.612363,488.535738 L194.366156,489.725958 C193.215661,492.387841 191.791237,494.795379 190.093047,496.945233 L187.738898,495.085669 C189.272751,493.143859 190.563852,490.961662 191.612363,488.535738 Z M181.460061,500.853392 L183.121417,503.35137 C180.877157,504.843982 178.385073,506.088769 175.64765,507.086458 L174.620364,504.267827 C177.138962,503.349892 179.418032,502.211504 181.460061,500.853392 Z M303,447 L293,447 L288,447 L283,447 C282.340559,447 282,447.307566 282,448 L282,450 L314,450 L314,448 C314,447.307566 313.659441,447 313,447 L307,447 L303,447 Z M303,445 L305,445 L305,434.980342 L298.165516,428.144558 L300.486594,425.82348 L297.937397,423.274282 L295.393482,425.818197 L297.714484,428.139198 L297.007512,428.846305 L290,435.855152 L290,445 L293,445 L293,437.015833 C293,434.785216 294.893476,433 297.198721,433 L298.801279,433 C301.107643,433 303,434.784778 303,437.015833 L303,445 Z M307,445 L313,445 C314.702743,445 316,446.150556 316,448 L316,452 L280,452 L280,448 C280,446.150556 281.297257,445 283,445 L288,445 L288,437.601255 C286.465731,438.412412 284.521317,438.17224 283.2297,436.880623 L280.045467,433.694422 L288,425.73989 L288,418 C288,417.9932 288.000007,417.986403 288.000021,417.979607 L282.921218,412.901772 C281.334788,411.315342 281.334788,408.743614 282.921437,407.156965 L286.107637,403.972733 L292.372068,410.237163 C293.719083,409.447473 295.299656,409 297,409 L298,409 C299.931066,409 301.707652,409.577148 303.163083,410.577266 L309.7728,403.967549 L310.479906,404.675093 L312.957251,407.153968 C314.543681,408.740399 314.543681,411.312126 312.957183,412.898624 L307,418.854672 L307,424.865249 L315.853126,433.718375 L312.668457,436.903044 C311.10768,438.463821 308.591732,438.48906 307,436.978697 L307,445 Z M300.478938,417.904927 L298.15718,415.583169 L301.718189,412.02216 C300.646566,411.369701 299.374942,411 298,411 L297,411 C295.859896,411 294.79083,411.254197 293.847927,411.713022 L297.719757,415.584853 L295.398076,417.906534 L297.937703,420.446161 L300.478938,417.904927 Z M301.893152,419.31914 L299.351917,421.860375 L301.900808,424.409266 L304.222412,422.087661 L305,422.865249 L305,420.854291 L304.214076,421.640065 L301.893152,419.31914 Z M297.939387,421.861141 L297.935866,421.864662 L297.940153,421.861906 L297.939387,421.861141 Z M303.260236,413.30854 L300.985607,415.583169 L304.214211,418.811773 L305,418.026133 L305,418 C305,416.160791 304.347217,414.531451 303.260236,413.30854 Z M306.828647,416.197835 L311.543037,411.484343 C312.348419,410.678961 312.348419,409.373564 311.542819,408.567963 L309.772363,406.796413 L304.675246,411.89353 C305.748437,413.068475 306.507295,414.541224 306.828647,416.197835 Z M305,432.151645 L305,425.693676 L304.222412,424.916089 L300.993809,428.144692 L305,432.151645 Z M307,427.693676 L307,434.152026 L308.336551,435.488831 C309.141932,436.294213 310.448861,436.294213 311.254243,435.488831 L313.024699,433.718375 L307,427.693676 Z M296.523183,421.860069 L293.983863,419.320748 L291.662861,421.641749 L290.955754,420.934777 L290,419.979205 L290,423.73989 L291.657588,422.082302 L293.979269,424.403983 L296.523183,421.860069 Z M290.042629,417.193669 L291.662726,418.813457 L294.89133,415.584853 L292.171722,412.865245 C291.005505,413.957226 290.227763,415.461221 290.042629,417.193669 Z M290.758022,411.451545 L286.1072,406.800723 L284.335432,408.571397 C283.53005,409.376779 283.53005,410.682177 284.335364,411.487491 L288.338237,415.489601 C288.777034,413.912969 289.622846,412.530673 290.758022,411.451545 Z M288,435.026837 L288,428.568317 L282.873458,433.694859 L284.644132,435.466628 C285.449514,436.27201 286.754911,436.27201 287.560226,435.466695 L288,435.026837 Z M290,433.026456 L294.886191,428.139333 L291.657588,424.910729 L290,426.568317 L290,433.026456 Z M301,437.015833 C301,435.916367 300.028398,435 298.801279,435 L297.198721,435 C295.972577,435 295,435.91697 295,437.015833 L295,445 L301,445 L301,437.015833 Z M168.931022,558.436739 L168.068978,555.563261 C170.673651,554.781859 173.259702,554.05722 175.827133,553.389358 L176.582384,556.292735 C174.050958,556.951231 171.500503,557.665895 168.931022,558.436739 Z M185.275702,554.236221 L184.651893,551.301794 C187.313321,550.73602 189.954067,550.233367 192.574129,549.793853 L193.070443,552.752514 C190.49331,553.184827 187.895063,553.67939 185.275702,554.236221 Z M201.912196,551.504053 L201.571977,548.523407 C204.276237,548.214735 206.957626,547.975872 209.616133,547.806838 L209.806496,550.800792 C207.19832,550.966626 204.566892,551.201039 201.912196,551.504053 Z M218.704717,550.500748 L218.695007,547.500764 C221.414461,547.491962 224.108941,547.559239 226.778417,547.702615 L226.617521,550.698298 C224.00511,550.557987 221.367518,550.49213 218.704717,550.500748 Z M235.500578,551.474093 L235.863046,548.496071 C238.178586,548.777906 240.474397,549.119553 242.750569,549.521041 C243.133331,549.588587 243.505348,549.656755 243.876642,549.727352 L243.316265,552.67455 C242.958019,552.606434 242.599009,552.54065 242.229334,552.475413 C240.006067,552.083257 237.763158,551.749482 235.500578,551.474093 Z M251.885209,554.813599 L252.783374,551.951205 C255.437704,552.784084 257.981028,553.745642 260.430561,554.833883 L259.212557,557.575501 C256.866893,556.533405 254.430334,555.612212 251.885209,554.813599 Z M267.021302,561.678724 L268.585924,559.119045 C270.884273,560.523927 273.104462,562.055321 275.306465,563.736808 L273.485753,566.121134 C271.363507,564.50055 269.228225,563.027722 267.021302,561.678724 Z M280.29062,571.819648 L282.300065,569.592064 C283.240424,570.440337 284.195738,571.321242 285.318963,572.371934 C285.967631,572.978714 288.160221,575.042638 288.179771,575.060999 L286.125961,577.247747 C286.103385,577.226543 283.914151,575.165778 283.269561,574.562814 C282.158527,573.523525 281.215899,572.654317 280.29062,571.819648 Z M292.927455,583.295281 L294.807797,580.957694 C297.072857,582.779696 299.142662,584.164037 301.211002,585.201023 L299.866442,587.882843 C297.5888,586.740921 295.346964,585.241521 292.927455,583.295281 Z M308.21388,591.533486 L309.361694,588.76175 C311.719502,589.73815 314.184585,590.721938 316.756902,591.71308 L315.678268,594.512464 C313.083205,593.512557 310.595089,592.519577 308.21388,591.533486 Z M324.146459,597.66351 L325.162479,594.840798 C327.590672,595.714813 330.099603,596.594312 332.689256,597.479281 L331.719139,600.318097 C329.114359,599.427958 326.590138,598.543099 324.146459,597.66351 Z M450,467.5738 L450,467 L452.079496,467 C452.856782,467 453.576853,467.489916 453.636673,468.240133 L453.632889,468.206223 C453.626247,468.145505 453.623568,468.133333 453.66602,468.133333 L454.565196,468.133333 L450.314732,459.148415 C450.255449,459.022865 450.042511,459.022865 449.982343,459.149806 L449.93247,459.242583 L447.721024,462.898454 L450,467.5738 Z M450.630202,468.866667 L457.005496,481.945659 L460.795263,481.945659 C460.975934,481.945659 461.04722,481.83537 461.007247,481.750974 L455.448254,470 L453.66602,470 C452.81198,470 452.028958,469.556028 451.761546,468.866667 L450.630202,468.866667 Z M429.732792,476.193548 L430,476.193548 L430,476.690765 L432.824015,481.945659 L454.762464,481.945659 L446,463.968577 L446,465 L439.545018,465 C437.588771,465 435.963653,463.440623 435.963653,461.459768 C435.963653,461.300763 435.782129,461.126582 435.508303,461.126582 L430.507797,461.126582 L426.75364,467.936836 L425,466.93869 L429,459.682541 L429,459 L429.376255,459 L435.872073,447.216345 C436.73954,445.589071 439.208635,445.589071 440.093003,447.249478 L446.679001,460.760731 L448.235263,458.187982 C449.044594,456.586045 451.315518,456.604096 452.089301,458.242824 L462.781288,480.844267 C463.484434,482.328851 462.404269,484 460.795263,484 L433.928032,484 L435,485.994705 L433.324947,485.996834 L430.833585,486 L416.16396,486 C414.560824,486 413.515526,484.326707 414.22755,482.897237 L421.562574,468.197153 C422.357779,466.605379 424.642746,466.605379 425.421282,468.170741 L429.732792,476.193548 Z M420.089874,475.806452 L416.016267,483.784864 C415.96556,483.884351 416.039485,484 416.153774,484 L431.165827,484 L432,483.998965 L428.701375,478 L426.111548,478 C424.664732,478 423.463806,477.038227 423.394774,475.806452 L420.089874,475.806452 Z M421.01221,474 L423.4674,474 C424.549741,474 425.450464,474.747228 425.450464,475.694363 C425.450464,475.958633 425.733454,476.193548 426.111548,476.193548 L427.708069,476.193548 L423.797819,469.082266 C423.74188,468.972426 423.579249,468.972426 423.522633,469.08318 L421.01221,474 Z M431.680077,459 L435.508303,459 C436.843517,459 437.963653,460.074823 437.963653,461.459768 C437.963653,462.214683 438.650159,462.873418 439.545018,462.873418 L445.466193,462.873418 L438.308726,448.189151 C438.201533,447.988067 437.746643,447.988067 437.632581,448.201821 L431.680077,459 Z M453.496057,468.427486 C453.49948,468.46062 453.503943,468.507246 453.503943,468.572514 C453.503943,468.535747 453.502573,468.499508 453.499885,468.463818 L453.496057,468.427486 Z M221,615.881966 L221,608.027778 L204.401039,608.027778 L206.329698,606.285689 C207.05474,605.630785 207.764606,604.940026 208.458444,604.217673 C210.349952,602.248429 212.041716,600.13508 213.507782,598.022104 C213.824015,597.566332 214.115391,597.130964 214.381197,596.720238 L207.461677,596.720238 L209.704498,594.937425 C210.735004,594.118278 211.736169,593.213737 212.704842,592.237891 C214.34048,590.590141 215.806709,588.821475 217.079664,587.053247 C217.285418,586.767441 217.479103,586.491256 217.660445,586.22619 L210.846301,586.22619 L213.116328,584.440265 C215.583574,582.499178 217.769802,580.037504 219.643617,577.325349 C220.301182,576.373591 220.872046,575.459156 221.353162,574.616082 C221.520789,574.322346 221.664965,574.059059 221.785338,573.830471 C221.856231,573.695844 221.904375,573.600953 221.924271,573.560203 L223.720478,573.560203 C223.740209,573.600648 223.78831,573.695463 223.859112,573.829925 C223.979408,574.058385 224.123516,574.321566 224.29108,574.615216 C224.772118,575.458214 225.342932,576.37263 226.000475,577.324415 C227.874413,580.036915 230.060859,582.49894 232.528409,584.440265 L234.798436,586.22619 L227.984292,586.22619 C228.165634,586.491256 228.359319,586.767441 228.565073,587.053247 C229.838028,588.821475 231.304257,590.590141 232.939895,592.237891 C233.908568,593.213737 234.909733,594.118278 235.940239,594.937425 L238.183059,596.720238 L231.26354,596.720238 C231.529346,597.130964 231.820722,597.566332 232.136955,598.022104 C233.60302,600.13508 235.294785,602.248429 237.186293,604.217673 C237.880131,604.940026 238.589997,605.630785 239.315039,606.285689 L241.243697,608.027778 L223,608.027778 L223,616 L221.236068,616 L222.928157,616.846045 L227.448221,613.832669 L233.478852,617.122104 L232.521148,618.877896 L227.551779,616.167331 L223.071843,619.153955 L217.043779,616.139923 L212.514496,618.857493 L211.485504,617.142507 L216.956221,613.860077 L221,615.881966 Z M221.289088,578.462197 C219.842042,580.556648 218.215484,582.513195 216.412972,584.22619 L221.23695,584.22619 L220.359318,585.73019 C220.282006,585.862679 220.136564,586.100794 219.92552,586.429535 C219.57757,586.971533 219.169176,587.573933 218.702806,588.221755 C217.371891,590.070493 215.839646,591.918793 214.124263,593.646878 C213.759706,594.014134 213.390435,594.372137 213.016529,594.720238 L217.875723,594.720238 L217.041181,596.209171 C216.953958,596.364789 216.788727,596.646193 216.548269,597.035508 C216.15117,597.678434 215.684505,598.39329 215.150988,599.162225 C213.628071,601.357138 211.871312,603.551678 209.90084,605.60313 C209.763773,605.745831 209.62607,605.887389 209.487734,606.027778 L236.157002,606.027778 C236.018667,605.887389 235.880964,605.745831 235.743897,605.60313 C233.773425,603.551678 232.016666,601.357138 230.493749,599.162225 C229.960232,598.39329 229.493566,597.678434 229.096468,597.035508 C228.85601,596.646193 228.690779,596.364789 228.603556,596.209171 L227.769014,594.720238 L232.628208,594.720238 C232.254302,594.372137 231.885031,594.014134 231.520474,593.646878 C229.805091,591.918793 228.272846,590.070493 226.941931,588.221755 C226.475561,587.573933 226.067167,586.971533 225.719217,586.429535 C225.508173,586.100794 225.36273,585.862679 225.285419,585.73019 L224.407787,584.22619 L229.231764,584.22619 C227.428958,582.512918 225.802174,580.556024 224.354971,578.461216 C223.781423,577.631013 223.270172,576.827134 222.822368,576.068705 C222.374372,576.827459 221.862895,577.631671 221.289088,578.462197 Z M416.943304,582.666267 L415.056696,580.333733 C417.188058,578.609837 419.305218,576.958799 421.408199,575.380626 L423.208884,577.780112 C421.135258,579.336256 419.046724,580.964971 416.943304,582.666267 Z M430.475424,572.582503 L428.78932,570.101162 C431.067135,568.553358 433.327905,567.093764 435.57167,565.722404 L437.136161,568.282163 C434.934051,569.628064 432.713793,571.061503 430.475424,572.582503 Z M444.876764,563.872218 L443.477212,561.218682 C445.925274,559.927502 448.352536,558.745193 450.75904,557.671824 L451.981078,560.411645 C449.635446,561.457864 447.267327,562.611365 444.876764,563.872218 Z M460.225012,557.144162 L459.245251,554.308661 C461.870489,553.401553 464.470134,552.629639 467.044168,551.993074 L467.764379,554.90534 C465.27904,555.519971 462.765924,556.266192 460.225012,557.144162 Z M476.469426,553.276078 L476.096081,550.2994 C477.02172,550.183303 477.943855,550.085598 478.86266,550.006277 C480.51821,549.863556 482.234616,549.65755 484.013685,549.388918 L484.461596,552.355292 C482.620797,552.633245 480.8411,552.846848 479.12051,552.995175 C478.240517,553.071146 477.356825,553.164778 476.469426,553.276078 Z M493.423414,550.608105 L492.736969,547.687695 C495.22622,547.102594 497.784453,546.423013 500.39053,545.655807 L501.237753,548.533691 C498.57947,549.316266 495.967717,550.010064 493.423414,550.608105 Z M509.8805,545.733567 L508.882411,542.904465 C511.357955,542.031108 513.840374,541.094238 516.307969,540.102568 L517.426643,542.886193 C514.919397,543.893797 512.396782,544.845838 509.8805,545.733567 Z M525.752552,539.308318 L524.502413,536.581204 C526.944036,535.461937 529.330578,534.302908 531.638294,533.115625 L533.010756,535.783274 C530.662364,536.991484 528.235042,538.170317 525.752552,539.308318 Z M540.98378,531.385486 L539.453829,528.804933 C541.835823,527.392704 544.062947,525.970771 546.107123,524.555907 L547.81448,527.022672 C545.710714,528.478782 543.424547,529.938412 540.98378,531.385486 Z M555.057177,521.376864 L553.053564,519.144033 C555.266835,517.157971 556.990809,515.258239 558.179239,513.491711 L560.66838,515.166278 C559.328164,517.158428 557.442113,519.23676 555.057177,521.376864 Z M614.494058,451.4163 L613.505942,448.5837 C616.297573,447.609875 619.003179,446.976211 621.622436,446.685173 L621.953741,449.666823 C619.56563,449.932177 617.079177,450.514515 614.494058,451.4163 Z M630.419982,450.143569 L631.124662,447.227505 C633.855914,447.887524 636.459642,448.995528 638.930821,450.547607 L637.335215,453.088088 C635.135917,451.70677 632.832514,450.726568 630.419982,450.143569 Z M643.841615,458.6808 L646.076203,456.679147 C647.805741,458.609953 649.451962,460.813117 651.016018,463.287956 L648.480014,464.890668 C647.002493,462.552755 645.455976,460.483026 643.841615,458.6808 Z M652.644646,472.581556 L655.362281,471.310943 C656.453202,473.644245 657.495874,476.142321 658.490601,478.805273 L655.68027,479.855052 C654.712823,477.26513 653.700847,474.840598 652.644646,472.581556 Z M658.510571,488.327077 L661.384728,487.467299 C662.126928,489.948401 662.83665,492.542847 663.513974,495.250698 L660.603637,495.97867 C659.937169,493.314217 659.239455,490.763666 658.510571,488.327077 Z M662.597023,504.736016 L665.534767,504.128022 C666.062224,506.676625 666.565519,509.310367 667.044676,512.029281 L664.090205,512.549951 C663.616117,509.859806 663.118381,507.255151 662.597023,504.736016 Z M665.525172,521.44094 L668.493062,521.003181 C668.874304,523.587903 669.23641,526.24038 669.579389,528.960627 L666.602954,529.335908 C666.262573,526.63627 665.903309,524.004609 665.525172,521.44094 Z M667.726055,538.304345 L670.69842,537.898081 C671.066292,540.589554 671.463273,543.212952 671.889346,545.768257 L668.9302,546.261667 C668.499236,543.67703 668.097861,541.024595 667.726055,538.304345 Z M670.587733,555.168253 L673.525599,554.560849 C674.076582,557.22582 674.663558,559.806233 675.286486,562.302064 L672.375776,563.028541 C671.742848,560.492643 671.146847,557.872556 670.587733,555.168253 Z M674.81,571.781456 L677.676207,570.895534 C678.481267,573.500128 679.332546,575.9953 680.229941,578.381024 L677.422018,579.43723 C676.503136,576.994382 675.632498,574.442467 674.81,571.781456 Z M680.980215,587.847987 L683.689341,586.55933 C684.859109,589.018516 686.090483,591.33001 687.383223,593.493893 L684.807813,595.032486 C683.465642,592.78586 682.189857,590.391 680.980215,587.847987 Z M690.051461,602.63616 L692.394361,600.762443 C694.073631,602.862206 695.835496,604.761804 697.679812,606.461921 L695.646476,608.667718 C693.688813,606.863116 691.823857,604.852369 690.051461,602.63616 Z M703.050582,614.245728 L704.597493,611.675306 C706.817537,613.011355 709.137149,614.11372 711.557576,614.983106 L710.543449,617.806499 C707.93722,616.870375 705.439182,615.683216 703.050582,614.245728 Z M719.643123,619.997962 L720.036801,617.023905 C722.527023,617.353537 725.109499,617.477817 727.784831,617.396173 L727.87634,620.394777 C725.041273,620.481295 722.296665,620.349214 719.643123,619.997962 Z M737.117937,619.397713 L736.585529,616.445334 C737.276961,616.320646 737.973774,616.183989 738.675968,616.035354 L739.297218,618.970324 C738.565651,619.125176 737.839224,619.267642 737.117937,619.397713 Z M803.773803,582.982847 L804.226197,580.017153 C806.912169,580.426878 809.535623,580.777819 812.096525,581.070001 L811.756451,584.050664 C809.157516,583.754142 806.496644,583.398196 803.773803,582.982847 Z M820.800386,584.858567 L820.98922,581.864516 C823.707312,582.035946 826.345662,582.132757 828.904221,582.155016 L828.878123,585.154902 C826.264416,585.132164 823.571854,585.033363 820.800386,584.858567 Z M837.999078,584.904606 L837.800214,581.911205 C840.516871,581.730726 843.127851,581.452113 845.633128,581.075552 L846.079041,584.042227 C843.490327,584.43133 840.797015,584.718728 837.999078,584.904606 Z M855.0542,582.172514 L854.264946,579.278196 C856.868505,578.56823 859.330026,577.727452 861.649831,576.756211 L862.808408,579.523465 C860.366271,580.545924 857.781429,581.428824 855.0542,582.172514 Z M871.064492,575.186187 L869.429851,572.670645 C871.629303,571.241404 873.655428,569.650753 875.509266,567.898289 L877.570141,570.078379 C875.583759,571.95614 873.414863,573.658876 871.064492,575.186187 Z M883.59843,563.049785 L881.131649,561.342451 C881.196993,561.247859 881.196993,561.247859 881.262039,561.152974 C882.639766,559.139374 883.567888,556.941804 884.073875,554.545783 L887.009138,555.165647 C886.42283,557.942017 885.340344,560.505081 883.737961,562.847026 C883.668359,562.948556 883.668359,562.948556 883.59843,563.049785 Z M887.237246,545.657348 L884.263743,546.055194 C883.948193,543.696774 883.358625,541.190433 882.503011,538.521247 L885.359826,537.605489 C886.267018,540.435584 886.896807,543.112903 887.237246,545.657348 Z M882.020555,529.080676 L879.288647,530.320306 C878.271194,528.078032 877.108096,525.729611 875.78418,523.22923 L878.435463,521.825414 C879.786529,524.37707 880.97636,526.779471 882.020555,529.080676 Z M874.042134,513.944654 L871.447517,515.45063 C870.259856,513.404433 869.004891,511.289891 867.37995,508.586378 L869.95124,507.04091 C871.583386,509.756411 872.845533,511.883055 874.042134,513.944654 Z M865.297735,499.307475 L862.722516,500.846385 C861.138116,498.195043 859.847948,495.993893 858.665627,493.912624 L861.274114,492.430802 C862.444071,494.490306 863.723723,496.673515 865.297735,499.307475 Z M857.050352,484.544091 L854.361519,485.874569 C853.036737,483.197248 851.946762,480.72716 851.081413,478.411124 L853.891661,477.361121 C854.718565,479.574261 855.768156,481.952832 857.050352,484.544091 Z M851.751274,469.055701 L848.769355,469.384583 C848.415873,466.179617 848.714723,463.311229 849.729527,460.770964 L852.515449,461.883906 C851.696605,463.933641 851.44874,466.312676 851.751274,469.055701 Z M800,362.135353 L800,370.454446 L800,385.45457 C800,386.324029 799.276299,387 798.416058,387 L794.583942,387 C793.723701,387 793,386.324029 793,385.45457 L793,370.454446 L793,362.135353 L789.748125,362.135353 L789.748125,360.135353 L793,360.135353 L793,356.54543 C793,355.675971 793.723701,355 794.583942,355 L798.416058,355 C799.276299,355 800,355.675971 800,356.54543 L800,360.135353 L801,360.135353 L801,359.932836 C801,358.860971 801.875786,358 802.948888,358 L818.051112,358 C819.12311,358 820,358.861206 820,359.932836 L820,360.135353 L821,360.135353 L821,356.54543 C821,355.675971 821.723701,355 822.583942,355 L826.416058,355 C827.276299,355 828,355.675971 828,356.54543 L828,360.135353 L831.090221,360.135353 L831.090221,362.135353 L828,362.135353 L828,370.454446 L828,385.45457 C828,386.324029 827.276299,387 826.416058,387 L822.583942,387 C821.723701,387 821,386.324029 821,385.45457 L821,370.454446 L821,362.135353 L820,362.135353 L820,363.067164 C820,364.138794 819.12311,365 818.051112,365 L807,365 L807,378 L809,378 L815,378 L818.713125,378 C819.419072,378 820,378.570227 820,379.281591 L820,384 L820,386.718409 C820,387.411096 819.449404,388 818.736727,388 L816,388 L807,388 L802.289855,388 C801.58452,388 801,387.432146 801,386.718409 L801,384 L801,379.281591 C801,378.570227 801.580928,378 802.286875,378 L805,378 L805,365 L802.948888,365 C801.875786,365 801,364.139029 801,363.067164 L801,362.135353 L800,362.135353 Z M798,362.135353 L795,362.135353 L795,370 L798,370 L798,362.135353 Z M798,372 L795,372 L795,385 L798,385 L798,372 Z M798,360.135353 L798,357 L795,357 L795,360.135353 L798,360.135353 Z M826,362.135353 L823,362.135353 L823,370 L826,370 L826,362.135353 Z M826,372 L823,372 L823,385 L826,385 L826,372 Z M826,360.135353 L826,357 L823,357 L823,360.135353 L826,360.135353 Z M808.071229,363 L808.071229,360 L807,360 L807,363 L808.071229,363 Z M810.071229,363 L818,363 L818,360 L810.071229,360 L810.071229,363 Z M805,363 L805,360 L803,360 L803,363 L805,363 Z M818,384 L817,384 L817,386 L818,386 L818,384 Z M818,382 L818,380 L815,380 L815,382 L818,382 Z M803,384 L803,386 L807,386 L807,384 L803,384 Z M810,384 L810,386 L814,386 L814,384 L810,384 Z M809,382 L810,382 L812,382 L812,380 L809,380 L809,382 Z M803,382 L807,382 L807,380 L803,380 L803,382 Z M507.266896,621 C507.613802,620.402372 508.263431,620 509.003218,620 L515.995465,620 C516.73594,620 517.386008,620.402269 517.733075,621 L525.397017,621 C526.285399,621 527,620.313671 527,619.5 C527,618.686329 526.285399,618 525.397017,618 L499.602983,618 C498.714601,618 498,618.686329 498,619.5 C498,620.313671 498.714601,621 499.602983,621 L507.266896,621 Z M507,623 L502.514133,623 L499.594303,623 C498.71141,623 498,623.68555 498,624.5 C498,625.31445 498.71141,626 499.594303,626 L507,626 L507,623 Z M507,628 L502.611832,628 L499.602873,628 C498.95457,628 498,629.422713 498,630.5 C498,631.313681 498.714561,632 499.602873,632 L507,632 L507,628 Z M518,632 L525.397127,632 C526.284655,632 527,631.313166 527,630.5 C527,629.423417 526.044626,628 525.397127,628 L519.134249,628 L518,628 L518,632 Z M518,626 L525.362814,626 C526.272774,626 527,625.310604 527,624.5 C527,623.689396 526.272774,623 525.362814,623 L518,623 L518,626 Z M506,606 L527.166675,606 C527.755223,606 528.302442,606.329632 528.552261,606.860682 L532.856881,615.889895 C533.341586,616.902032 532.559075,618 531.472049,618 L528.65163,618 C528.874771,618.454343 529,618.962807 529,619.5 C529,620.482982 528.580689,621.36977 527.909441,622.004783 C528.580755,622.638645 529,623.520982 529,624.5 C529,625.580927 528.488932,626.543996 527.691801,627.184909 C528.486733,628.082681 529,629.353241 529,630.5 C529,632.436344 527.371435,634 525.397127,634 L499.602873,634 C497.627632,634 496,632.436697 496,630.5 C496,629.355921 496.510241,628.089093 497.301476,627.19184 C496.508305,626.550314 496,625.583385 496,624.5 C496,623.519098 496.416687,622.633662 497.084222,621.998774 C496.416673,621.364181 496,620.479886 496,619.5 C496,618.962807 496.125229,618.454343 496.34837,618 L493.528553,618 C492.423319,618 491.640727,616.869071 492.161151,615.852394 L496.794698,606.819756 C497.057057,606.310918 497.590039,606 498.161151,606 L500,606 L500,603.471837 C500,602.658245 500.663528,602 501.475624,602 L504.524376,602 C505.336472,602 506,602.658245 506,603.471837 L506,606 Z M504,606 L504,604 L502,604 L502,606 L504,606 Z M504.524376,608 L501.475624,608 L498.437052,608 L494.333228,616 L499.602983,616 L525.397017,616 L530.693718,616 L526.879781,608 L504.524376,608 Z M509,632 L516,632 L516,621.992618 C516,622.001488 515.998495,622 515.995465,622 L509.003218,622 C509.001501,622 509,622.001485 509,621.992618 L509,632 Z M737.266896,221 C737.613802,220.402372 738.263431,220 739.003218,220 L745.995465,220 C746.73594,220 747.386008,220.402269 747.733075,221 L755.397017,221 C756.285399,221 757,220.313671 757,219.5 C757,218.686329 756.285399,218 755.397017,218 L729.602983,218 C728.714601,218 728,218.686329 728,219.5 C728,220.313671 728.714601,221 729.602983,221 L737.266896,221 Z M737,223 L732.514133,223 L729.594303,223 C728.71141,223 728,223.68555 728,224.5 C728,225.31445 728.71141,226 729.594303,226 L737,226 L737,223 Z M737,228 L732.611832,228 L729.602873,228 C728.95457,228 728,229.422713 728,230.5 C728,231.313681 728.714561,232 729.602873,232 L737,232 L737,228 Z M748,232 L755.397127,232 C756.284655,232 757,231.313166 757,230.5 C757,229.423417 756.044626,228 755.397127,228 L749.134249,228 L748,228 L748,232 Z M748,226 L755.362814,226 C756.272774,226 757,225.310604 757,224.5 C757,223.689396 756.272774,223 755.362814,223 L748,223 L748,226 Z M736,206 L757.166675,206 C757.755223,206 758.302442,206.329632 758.552261,206.860682 L762.856881,215.889895 C763.341586,216.902032 762.559075,218 761.472049,218 L758.65163,218 C758.874771,218.454343 759,218.962807 759,219.5 C759,220.482982 758.580689,221.36977 757.909441,222.004783 C758.580755,222.638645 759,223.520982 759,224.5 C759,225.580927 758.488932,226.543996 757.691801,227.184909 C758.486733,228.082681 759,229.353241 759,230.5 C759,232.436344 757.371435,234 755.397127,234 L729.602873,234 C727.627632,234 726,232.436697 726,230.5 C726,229.355921 726.510241,228.089093 727.301476,227.19184 C726.508305,226.550314 726,225.583385 726,224.5 C726,223.519098 726.416687,222.633662 727.084222,221.998774 C726.416673,221.364181 726,220.479886 726,219.5 C726,218.962807 726.125229,218.454343 726.34837,218 L723.528553,218 C722.423319,218 721.640727,216.869071 722.161151,215.852394 L726.794698,206.819756 C727.057057,206.310918 727.590039,206 728.161151,206 L730,206 L730,203.471837 C730,202.658245 730.663528,202 731.475624,202 L734.524376,202 C735.336472,202 736,202.658245 736,203.471837 L736,206 Z M734,206 L734,204 L732,204 L732,206 L734,206 Z M734.524376,208 L731.475624,208 L728.437052,208 L724.333228,216 L729.602983,216 L755.397017,216 L760.693718,216 L756.879781,208 L734.524376,208 Z M739,232 L746,232 L746,221.992618 C746,222.001488 745.998495,222 745.995465,222 L739.003218,222 C739.001501,222 739,222.001485 739,221.992618 L739,232 Z M603,577.985481 L603,591.79815 L607.448221,588.832669 L613.478852,592.122104 L612.521148,593.877896 L607.551779,591.167331 L603.071843,594.153955 L597.043779,591.139923 L592.514496,593.857493 L591.485504,592.142507 L596.956221,588.860077 L601,590.881966 L601,577.930597 C593.732517,577.172364 588,570.30769 588,562.589459 C588,555.061807 596.493679,549 605.236297,549 C612.84014,549 617,554.906091 617,563.619562 C617,571.347692 610.786394,577.6447 603,577.985481 Z M603,575.983243 C609.689696,575.645187 615,570.234629 615,563.619562 C615,555.890867 611.555197,551 605.236297,551 C597.481394,551 590,556.339354 590,562.589459 C590,569.240455 594.880289,575.154977 601,575.917148 L601,569.259743 L598.858633,567.265218 L600.221777,565.801716 L598.858633,567.265218 L595.824172,564.438841 L597.187316,562.975339 L600.221777,565.801716 L601,566.526573 L601,560 L603,560 L603,562.885342 C603.917267,562.117157 604.857359,561.307282 605.778482,560.497295 C606.148893,560.171576 606.48962,559.869189 606.792813,559.597964 C606.974288,559.435623 607.102596,559.320043 607.169902,559.259041 L608.495769,560.756221 L603.734727,564.875692 L603,564.007142 L603,568.389425 L603.256239,568.628093 L603,568.903196 L603,568.413732 L605.054296,566.782604 L606.297955,568.348909 L603.172559,570.830499 L603,570.613173 L603,575.983243 Z M846.755491,635.828347 L860.287809,616.209096 L857.100589,611.586659 L858.747126,610.451354 L861.502688,614.447756 L864.272395,610.432216 L865.91875,611.567784 L862.717285,616.20929 L876.239125,635.820065 C877.083761,637.045045 876.814653,638.746336 875.678574,639.603517 C875.455224,639.795051 875.04585,640.113266 874.463567,640.51569 C873.504909,641.178231 872.400335,641.839018 871.162664,642.455204 C870.050285,643.009012 868.880668,643.500548 867.658631,643.913423 C866.471092,644.314643 865.388946,643.467197 864.057254,641.756815 C863.641317,641.222599 863.208962,640.603665 862.764872,639.915755 C862.335105,639.250034 861.912005,638.547705 861.506782,637.838973 C861.108732,638.54578 860.693114,639.246141 860.270849,639.910102 C859.830413,640.602634 859.401594,641.225241 858.989036,641.761925 C857.67115,643.476323 856.598321,644.323898 855.428036,643.914934 C854.144507,643.493832 852.91786,642.983535 851.753776,642.403276 C850.538959,641.797727 849.454426,641.148351 848.512843,640.497231 C847.94084,640.101681 847.538486,639.78883 847.37739,639.646982 C846.178808,638.765786 845.910062,637.054055 846.755491,635.828347 Z M874.592588,636.95537 L861.502406,617.97063 L848.401846,636.963916 C848.16489,637.307456 848.242301,637.800512 848.620712,638.082201 C848.657384,638.11365 848.74051,638.18167 848.868324,638.281053 C849.088362,638.452144 849.349643,638.644271 849.650383,638.852238 C850.516651,639.451276 851.520029,640.05206 852.64601,640.613326 C853.72582,641.151578 854.863153,641.62472 856.069525,642.020698 C855.971499,641.986458 856.041315,641.961717 856.244088,641.801518 C856.566513,641.54679 856.962206,641.116944 857.403394,640.543016 C857.776184,640.058066 858.172417,639.48277 858.583232,638.836813 C859.075206,638.063243 859.561679,637.230927 860.019809,636.39819 C860.180299,636.106468 860.325641,635.835784 860.453096,635.593302 C860.528954,635.448984 860.581547,635.347022 860.608164,635.294547 L861.492929,633.550255 L862.388898,635.288817 C862.415938,635.341286 862.469366,635.44324 862.54642,635.58755 C862.67589,635.830023 862.823516,636.100698 862.986512,636.392411 C863.451802,637.225136 863.94576,638.057444 864.445155,638.831022 C864.859503,639.472859 865.259167,640.044995 865.635335,640.528133 C866.083921,641.104283 866.486335,641.53645 866.814992,641.793826 C867.026996,641.959849 867.107698,641.988496 867.018465,642.018644 C868.151848,641.635722 869.237963,641.179278 870.271304,640.664819 C871.419998,640.092931 872.443271,639.480781 873.326477,638.870386 C873.63313,638.658454 873.899531,638.462647 874.123877,638.288258 C874.254262,638.186907 874.33911,638.11749 874.424255,638.046937 C874.752388,637.79868 874.831072,637.301244 874.592588,636.95537 Z M919,573 L919,577 L925,577 L925,579 L919,579 L919,583 L927,583 L927,585 L919,585 L919,589 L928,589 L928,591 L919,591 L919,595 L931,595 L931,597 L919,597 L919,615.964816 L922.948221,613.332669 L928.978852,616.622104 L928.021148,618.377896 L923.051779,615.667331 L918.571843,618.653955 L912.543779,615.639923 L908.014496,618.357493 L906.985504,616.642507 L912.456221,613.360077 L917,615.631966 L917,597 L905,597 L905,595 L917,595 L917,591 L908,591 L908,589 L917,589 L917,585 L909,585 L909,583 L917,583 L917,579 L911,579 L911,577 L917,577 L917,573 L913,573 L913,571 L917,571 L917,567 L919,567 L919,571 L923,571 L923,573 L919,573 Z M721,470.881966 L721,463.027778 L704.401039,463.027778 L706.329698,461.285689 C707.05474,460.630785 707.764606,459.940026 708.458444,459.217673 C710.349952,457.248429 712.041716,455.13508 713.507782,453.022104 C713.824015,452.566332 714.115391,452.130964 714.381197,451.720238 L707.461677,451.720238 L709.704498,449.937425 C710.735004,449.118278 711.736169,448.213737 712.704842,447.237891 C714.34048,445.590141 715.806709,443.821475 717.079664,442.053247 C717.285418,441.767441 717.479103,441.491256 717.660445,441.22619 L710.846301,441.22619 L713.116328,439.440265 C715.583574,437.499178 717.769802,435.037504 719.643617,432.325349 C720.301182,431.373591 720.872046,430.459156 721.353162,429.616082 C721.520789,429.322346 721.664965,429.059059 721.785338,428.830471 C721.856231,428.695844 721.904375,428.600953 721.924271,428.560203 L723.720478,428.560203 C723.740209,428.600648 723.78831,428.695463 723.859112,428.829925 C723.979408,429.058385 724.123516,429.321566 724.29108,429.615216 C724.772118,430.458214 725.342932,431.37263 726.000475,432.324415 C727.874413,435.036915 730.060859,437.49894 732.528409,439.440265 L734.798436,441.22619 L727.984292,441.22619 C728.165634,441.491256 728.359319,441.767441 728.565073,442.053247 C729.838028,443.821475 731.304257,445.590141 732.939895,447.237891 C733.908568,448.213737 734.909733,449.118278 735.940239,449.937425 L738.183059,451.720238 L731.26354,451.720238 C731.529346,452.130964 731.820722,452.566332 732.136955,453.022104 C733.60302,455.13508 735.294785,457.248429 737.186293,459.217673 C737.880131,459.940026 738.589997,460.630785 739.315039,461.285689 L741.243697,463.027778 L723,463.027778 L723,471 L721.236068,471 L722.928157,471.846045 L727.448221,468.832669 L733.478852,472.122104 L732.521148,473.877896 L727.551779,471.167331 L723.071843,474.153955 L717.043779,471.139923 L712.514496,473.857493 L711.485504,472.142507 L716.956221,468.860077 L721,470.881966 Z M721.289088,433.462197 C719.842042,435.556648 718.215484,437.513195 716.412972,439.22619 L721.23695,439.22619 L720.359318,440.73019 C720.282006,440.862679 720.136564,441.100794 719.92552,441.429535 C719.57757,441.971533 719.169176,442.573933 718.702806,443.221755 C717.371891,445.070493 715.839646,446.918793 714.124263,448.646878 C713.759706,449.014134 713.390435,449.372137 713.016529,449.720238 L717.875723,449.720238 L717.041181,451.209171 C716.953958,451.364789 716.788727,451.646193 716.548269,452.035508 C716.15117,452.678434 715.684505,453.39329 715.150988,454.162225 C713.628071,456.357138 711.871312,458.551678 709.90084,460.60313 C709.763773,460.745831 709.62607,460.887389 709.487734,461.027778 L736.157002,461.027778 C736.018667,460.887389 735.880964,460.745831 735.743897,460.60313 C733.773425,458.551678 732.016666,456.357138 730.493749,454.162225 C729.960232,453.39329 729.493566,452.678434 729.096468,452.035508 C728.85601,451.646193 728.690779,451.364789 728.603556,451.209171 L727.769014,449.720238 L732.628208,449.720238 C732.254302,449.372137 731.885031,449.014134 731.520474,448.646878 C729.805091,446.918793 728.272846,445.070493 726.941931,443.221755 C726.475561,442.573933 726.067167,441.971533 725.719217,441.429535 C725.508173,441.100794 725.36273,440.862679 725.285419,440.73019 L724.407787,439.22619 L729.231764,439.22619 C727.428958,437.512918 725.802174,435.556024 724.354971,433.461216 C723.781423,432.631013 723.270172,431.827134 722.822368,431.068705 C722.374372,431.827459 721.862895,432.631671 721.289088,433.462197 Z M186.062957,135.171303 L187.937043,132.828697 C190.058334,134.52573 192.149353,136.165523 194.210085,137.748071 L192.382861,140.12741 C190.30621,138.532636 188.19958,136.880601 186.062957,135.171303 Z M199.617935,145.540225 L201.382992,143.114411 C203.585943,144.717311 205.751647,146.249939 207.880075,147.712294 L206.18123,150.184929 C204.030217,148.707058 201.842462,147.158824 199.617935,145.540225 Z M213.736521,155.182476 L215.344282,152.64967 C217.65386,154.115732 219.915409,155.491547 222.128864,156.77712 L220.622159,159.371314 C218.374041,158.065608 216.07885,156.669327 213.736521,155.182476 Z M228.592894,163.721689 L229.953555,161.048003 C232.403305,162.2947 234.786852,163.418005 237.104035,164.41798 L235.915354,167.172438 C233.538738,166.146814 231.097971,164.996544 228.592894,163.721689 Z M244.478339,170.418355 L245.39988,167.563401 C248.022911,168.410081 250.545804,169.073311 252.968229,169.553563 L252.384825,172.49629 C249.844882,171.992739 247.209496,171.299937 244.478339,170.418355 Z M261.593244,173.498007 L261.622568,170.49815 C261.748626,170.499383 261.874341,170.499999 261.999702,170.5 C264.389518,170.5 266.895862,170.425425 269.518888,170.27616 L269.68933,173.271314 C267.010804,173.423738 264.447749,173.5 261.99969,173.5 C261.864538,173.5 261.729056,173.499335 261.593244,173.498007 Z M278.741854,172.514338 L278.419577,169.531699 C280.957494,169.257475 283.585858,168.924991 286.304605,168.534221 L286.731414,171.503705 C283.978509,171.899385 281.315344,172.236271 278.741854,172.514338 Z M295.662906,170.069418 L295.141859,167.115013 C297.682291,166.666975 300.291518,166.174458 302.969513,165.637455 L303.559344,168.5789 C300.858788,169.120427 298.226651,169.617269 295.662906,170.069418 Z M312.392662,166.702895 L311.737957,163.775206 C314.271819,163.208571 316.860954,162.606132 319.505349,161.967888 L320.20921,164.884149 C317.548647,165.526295 314.943136,166.132545 312.392662,166.702895 Z M328.965868,162.692539 L328.214175,159.788239 C330.739071,159.134743 333.310067,158.451355 335.927155,157.738074 L336.716023,160.632497 C334.086684,161.349117 331.503301,162.035798 328.965868,162.692539 Z" id="Combined-Shape"></path>
                </g>
            </g>
        </g>
    </g>
</svg>