<?xml version="1.0" encoding="UTF-8"?>
<svg width="185px" height="151px" viewBox="0 0 185 151" version="1.1" xmlns="http://www.w3.org/2000/svg" xmlns:xlink="http://www.w3.org/1999/xlink">
    <!-- Generator: Sketch 56.3 (81716) - https://sketch.com -->
    <title>Group</title>
    <desc>Created with Sketch.</desc>
    <g id="Index" stroke="none" stroke-width="1" fill="none" fill-rule="evenodd">
        <g id="st1" transform="translate(-1055.000000, -11.000000)">
            <g id="Group-12" transform="translate(1055.000000, 11.000000)">
                <g id="Group">
                    <path d="M108.700721,25.2389814 C108.700721,25.2389814 117.528011,21.1492103 115.221796,10.3610654 C115.221796,10.3610654 114.589722,1.40481292 123.667047,6.64459696 C123.667047,6.64459696 140.166191,19.2887182 123.667047,39 C123.667047,39 104.099162,34.1636236 108.700721,25.2389814 Z M43.2992582,25.2389814 C47.9009554,34.1636236 28.3324827,39 28.3324827,39 C11.8343966,19.2887182 28.3324827,6.64459696 28.3324827,6.64459696 C37.4100798,1.40481292 36.7779871,10.3610654 36.7779871,10.3610654 C34.4732558,21.1492103 43.2992582,25.2389814 43.2992582,25.2389814 Z M59,15.0473189 C59,15.0473189 58.9969185,5.37501828 70.6358034,0 C70.6358034,0 68.0858491,4.29880027 70.6358034,6.09148499 C70.6358034,6.09148499 73.9068323,3.22561814 79.724734,2.50763349 C79.724734,2.50763349 77.5445616,4.30183615 78.6354182,7.88265177 C78.6354182,7.88265177 87.7243488,1.79116678 91,4.29880027 C91,4.29880027 85.5457172,7.88265177 89.9060619,12.5381675 C89.9060619,12.5381675 65.5451394,22.9284527 59,15.0473189 Z" id="Combined-Shape" fill="#E78A33"></path>
                    <path d="M115.191688,10.6124803 C117.325921,9.7004805 121.716643,8.2618329 126.14359,9.45000168 C127.592574,11.4409872 129.213624,14.3295218 130,18 C126.400181,17.2389297 119.253371,16.0957187 115,17.9165071 C115.538841,15.9094652 115.703361,13.4881699 115.191688,10.6124803 Z M125.534192,36 C123.231417,31.4945138 118.124876,25.8115778 112,22.9829739 C112.456392,22.4184639 113.7111,20.7325009 114.109514,20 C116.583251,20.1740446 124.920218,21.1199395 130,25.7646614 C129.383053,28.8687098 128.001982,32.2966326 125.534192,36 Z M36.8082729,10.6124803 C36.2964976,13.4881699 36.4625604,15.9094652 37,17.9165071 C32.7457729,16.0957187 25.5990338,17.2389297 22,18 C22.7850242,14.3295218 24.4048913,11.4409872 25.8541667,9.45000168 C30.2835145,8.2618329 34.6766304,9.7004805 36.8082729,10.6124803 Z M26.4669254,36 C23.9978528,32.2966326 22.6168965,28.8687098 22,25.7646614 C27.0823355,21.1199395 35.4156413,20.1740446 37.8921463,20 C38.2905277,20.7325009 39.5421587,22.4184639 40,22.9829739 C33.8741432,25.8115778 28.7680238,31.4945138 26.4669254,36 Z" id="Combined-Shape" fill="#B86C2F"></path>
                    <path d="M114.582509,10.0882682 C114.582509,10.0882682 114.333173,6.22597765 116.653078,5 C122.926732,14.3407821 114.636712,27 114.636712,27 L110,24.0072626 C112.443798,22.0561453 116.176088,17.7160615 114.582509,10.0882682 Z M36.4185935,10.0882682 C34.8264076,17.7160615 38.5559637,22.0561453 41,24.0072626 L36.3643848,27 C36.3643848,27 28.072008,14.3407821 34.3478225,5 C36.671051,6.22597765 36.4185935,10.0882682 36.4185935,10.0882682 Z" id="Combined-Shape" fill="#F0A353"></path>
                    <path d="M20.3085684,79.4227 C20.3085684,79.4227 12.3448808,12.724593 77.3318646,10.0424538 C77.3318646,10.0424538 131.739217,6.04298761 135,75.6821039 C135,75.6821039 51.7654394,96.1558172 20.3085684,79.4227" id="Fill-1034" fill="#FFAF0B"></path>
                    <path d="M20.3067823,78.803466 C21.8572598,79.6267865 23.5380804,80.3544074 25.3234788,81 C25.6326649,71.8933462 29.4535386,16.73543 77,10 C12.3891923,12.6598417 20.3067823,78.803466 20.3067823,78.803466" id="Fill-1035" fill="#F9CC40"></path>
                    <path d="M32.2160424,83.7778021 L29,70.2145359 L46.3348468,70 L49,84 L32.2160424,83.7778021 Z M109,82.6173393 L109.546902,66.5539635 L125.363916,66 L127,82.0665056 C127,82.0665056 111.729887,83.728396 109,82.6173393 Z" id="Combined-Shape" fill="#FFFFFE"></path>
                    <path d="M118,20.5050223 C117.337309,22.4023437 116.558683,23.9801897 115.994752,25 C114.730916,24.1392299 113.395515,23.3649554 112,22.7483259 C112.131679,22.5906808 112.334924,22.3381696 112.5625,22.046596 C113.082061,21.4676339 113.594466,20.7910156 114.043893,20 C114.841126,20.0544085 116.273855,20.1911272 118,20.5050223 Z M115,17 C115.484145,15.1115101 115.627747,12.8298998 115.166852,10.1249291 C115.987436,9.75902476 117.188225,9.31752032 118.591424,9 C119.13301,11.4131544 119.089245,13.8731809 118.733659,16.1668872 C117.370121,16.2772633 116.077701,16.5222075 115,17 Z M34,20.5050223 C35.7271643,20.1911272 37.1581207,20.0544085 37.9580253,20 C38.4087765,20.7910156 38.916766,21.4676339 39.4376342,22.046596 C39.6637253,22.3381696 39.8669211,22.5906808 40,22.7483259 C38.6019556,23.3649554 37.2697353,24.1392299 36.0033389,25 C35.4409731,23.9801897 34.6639637,22.4023437 34,20.5050223 Z M37,17 C35.9209316,16.5222075 34.6298789,16.2772633 33.2663412,16.1668872 C32.9107547,13.8731809 32.8669902,11.4131544 33.4085758,9 C34.8117751,9.31752032 36.0111959,9.75902476 36.8317802,10.1249291 C36.3695177,12.8298998 36.5158552,15.1115101 37,17 Z" id="Combined-Shape" fill="#DF7E2D"></path>
                    <path d="M168.555293,97.1962882 C166.071465,100.145996 153.221947,114.050784 130.988906,115 C130.988906,115 123.967652,99.5288945 131.447802,97.5592702 C131.447802,97.5592702 148.241178,104.396115 164.443045,86.126912 C164.510178,85.0263183 164.782456,83.4895039 165.54715,81.5288428 C165.54715,81.5288428 166.975425,79.1216277 166.275199,77.0241922 C166.275199,77.0241922 161.883716,72.6464757 165.302921,70.3556168 C165.302921,70.3556168 171.237064,68.0889359 172.720986,75.0008017 L172.444297,77.1118372 C172.444297,77.1118372 180.007663,78.6652692 182.453044,82.5669827 C182.453044,82.5669827 185.127195,85.9050482 183.556711,88.7761774 C183.556711,88.7761774 186.98519,92.7353135 183.273838,95.1032396 C183.273838,95.1032396 185.614107,99.4280668 181.052592,101.729504 C181.052592,101.729504 175.016429,103.198313 174.252827,99.2905549 C174.252827,99.2905549 171.227772,99.3610514 168.555293,97.1962882 Z M24.4424858,112.416415 C23.7761667,112.984612 9.55627696,114.390153 15.6934264,124.239404 C15.6934264,124.239404 25.8361142,132.39154 22.7683019,140.875622 C22.7683019,140.875622 19.4199341,151 9.65386145,151 C9.65386145,151 7.14563513,149.631841 10.2134475,146.620395 C10.2134475,146.620395 5.18937109,149.905473 1.84252807,146.346763 C1.84252807,146.346763 0.727930241,142.78955 6.58604908,142.242286 C6.58604908,142.242286 -1.22833381,140.053231 0.166819431,136.222385 C0.166819431,136.222385 1.00238662,131.845771 8.25870821,134.854226 C8.25870821,134.854226 13.1730021,136.605171 6.58604908,131.026371 C6.58604908,131.026371 -10.7123263,110.776119 23.0488573,96 C23.0488573,96 28.6294702,108.860697 24.4424858,112.416415 Z M20,73.4587104 C37.1033682,76.7759385 76.0142959,80.8734203 135.221323,68 C135.450795,70.2641155 135.888323,74.530218 136,76.9706187 C136,76.9706187 52.7350513,99.565786 21.1672513,82.8217553 C21.1672513,82.8217553 20.2417113,77.9194931 20,73.4587104 Z" id="Combined-Shape" fill="#E9992E"></path>
                    <path d="M4,111.366995 C4,111.366995 6.66125587,104.988667 11.4186245,102 C11.4186245,102 16.7560871,108.686907 18,114.231917 C16.0593763,115.234405 14.3190944,116.727172 13.9722341,119 C12.382956,116.465586 8.19521572,110.580669 4,111.366995 Z M15.685431,125.102315 C16.2933263,125.643638 19.0243406,128.187543 21,131.710837 C17.7483625,131.959596 11.3459019,132.485274 7.55558506,133 C7.25916091,132.716822 6.93866171,132.421128 6.57151708,132.091015 C6.57151708,132.091015 5.20525757,130.390384 4,127.608672 C6.48274031,126.33359 10.9471588,124.553169 15.685431,125.102315 Z M160.069032,106 C159.516773,102.820486 158.347101,98.0206559 156,94.6428876 C157.268955,93.8781942 158.551871,93.0106474 159.845647,92 C161.116153,94.1032794 162.80861,97.6882453 164,103.108177 C162.847392,104.03833 161.541206,105.014693 160.069032,106 Z M148.643236,112 C148.261745,108.459782 147.312787,103.049818 145,98.4494032 C146.616567,98.1349248 148.320558,97.6694344 150.096079,97 C151.482162,99.1826674 153.628047,103.4904 154,109.594707 C152.337337,110.447846 150.552278,111.258952 148.643236,112 Z" id="Combined-Shape" fill="#F2D039"></path>
                    <path d="M175.293296,96.4936169 L175.621789,96.7588867 L176.131737,97.171635 L175.527526,97.3854326 C175.303458,97.4626374 175.022214,97.5903221 174.808963,97.7580939 C174.693065,97.8367833 174.577168,97.9199268 174.490632,98.0268257 C174.397914,98.1292704 174.275835,98.2183527 174.215569,98.3445528 C174.146031,98.4633292 174.062585,98.5821057 173.997682,98.7083057 L173.872513,99.1195693 C173.813792,99.257647 173.829245,99.4031482 173.823064,99.5516188 L173.816882,100 L173.727255,99.5560729 C173.69944,99.4046329 173.653081,99.2517081 173.680896,99.0972987 L173.719529,98.6266469 C173.761252,98.4737222 173.821518,98.3252516 173.874058,98.1708421 C173.917327,98.0090092 174.025497,97.8842939 174.108943,97.7402774 C174.189299,97.5947762 174.299015,97.4700609 174.414912,97.3497997 C174.63898,97.0944303 174.893954,96.8984491 175.220012,96.7024679 L175.125749,97.3275291 L174.370099,96.7158302 L174.441182,96.7633408 L173.612903,96.3030819 C173.356384,96.116009 173.089048,95.9437831 172.844891,95.7359242 C172.613096,95.5132183 172.361213,95.312783 172.172687,95.0455359 C171.9548,94.8035288 171.801816,94.5110417 171.644195,94.2259782 C171.520572,93.9230981 171.40931,93.615764 171.358316,93.2906134 C171.308866,92.9699168 171.30114,92.6432815 171.332046,92.3211003 C171.364497,92.0018885 171.437126,91.6871308 171.539115,91.3842508 C171.645741,91.0769166 171.77091,90.8007613 171.962527,90.499366 L172.049063,90.9982272 C171.767819,90.7384037 171.46185,90.5038201 171.233147,90.1994554 C170.978173,89.9188459 170.780375,89.59518 170.59803,89.2729988 C170.423411,88.943394 170.273517,88.6033963 170.173073,88.2455822 C170.055631,87.8773751 170.029361,87.524015 170,87.1468997 C170.007726,86.7727538 170.033997,86.377822 170.237976,86.0214925 C170.418775,85.6666478 170.744833,85.3682219 171.112613,85.2256901 C171.857446,84.9287489 172.633185,84.9643818 173.365656,85.1069136 L173.373382,85.1069136 L173.393471,85.1128524 L173.928144,85.3028948 C174.108943,85.3667372 174.305196,85.3890077 174.492177,85.4365183 C174.867684,85.5270854 175.261735,85.5567795 175.646513,85.6028054 C176.425343,85.6740713 177.213444,85.6829795 178,85.6532854 C177.216535,85.726036 176.428433,85.7601843 175.637242,85.7319748 C175.243191,85.7082195 174.84605,85.6993113 174.453545,85.6295301 C174.258837,85.5924125 174.057949,85.5790501 173.864787,85.5211466 L173.283755,85.3518901 L173.310025,85.3607983 C172.627004,85.2628077 171.874445,85.2880477 171.285687,85.5701419 C171.138884,85.6399231 171.01526,85.7349443 170.900908,85.8388737 C170.806645,85.9561655 170.698474,86.0660337 170.652115,86.2130196 C170.513038,86.4817514 170.508403,86.8098714 170.520765,87.1246291 C170.565579,87.4379021 170.615028,87.7882927 170.730925,88.0792951 C170.837551,88.3910834 170.99208,88.6895093 171.163608,88.9730882 C171.344408,89.2492435 171.534479,89.5253988 171.772455,89.7555282 C171.888038,89.8947439 172.024048,90.0125879 172.164494,90.1248988 L172.339261,89.7725465 C172.339261,89.7725465 172.505835,89.8504119 172.796193,89.9893481 C172.944429,90.0595796 173.118644,90.1435521 173.323423,90.2397387 C173.528202,90.3298182 173.749792,90.4626474 174.011114,90.5481466 C174.529175,90.7313592 175.120589,91.0015978 175.789942,91.1496947 C176.448597,91.3420679 177.174493,91.4672632 177.898861,91.4901648 C178.262573,91.5176467 178.624757,91.5008522 178.977772,91.4519955 C179.336899,91.4413081 179.666991,91.314586 180.001667,91.2504616 C180.311892,91.1222128 180.631286,91.0321333 180.894137,90.8641884 C181.175326,90.7298324 181.406085,90.5450931 181.626146,90.3863088 C182.47277,89.682467 182.766185,89 182.766185,89 L183,89.1022937 C182.998472,89.1007669 182.71117,89.8580457 181.843151,90.6412797 C181.615449,90.819912 181.373993,91.0275529 181.080578,91.187864 C180.802445,91.3787105 180.466241,91.4916916 180.133093,91.6443688 C179.781606,91.729868 179.425535,91.8779648 179.041956,91.9085003 C178.666018,91.9756782 178.277855,92.010794 177.89122,91.997053 C177.117949,92.0077404 176.344679,91.9054467 175.647819,91.7359751 C174.935677,91.6077262 174.313698,91.3558089 173.763545,91.1863372 C173.485413,91.1054183 173.254654,90.9817498 173.037649,90.8977773 C172.91497,90.8448717 172.800446,90.7960401 172.696138,90.7515765 L172.606915,90.9076601 C172.483291,91.1080955 172.356577,91.3694037 172.274676,91.6188343 C172.185049,91.8712344 172.127873,92.1325426 172.100058,92.3953356 C172.049063,92.9194368 172.129419,93.4435381 172.348851,93.9230981 C172.483291,94.1517429 172.599189,94.3892958 172.783079,94.5912159 C172.937609,94.8139218 173.158586,94.9876324 173.356384,95.1806442 C173.56809,95.3602936 173.810701,95.5132183 174.039405,95.6824748 L174.791964,96.1011619 L174.842959,96.1293713 L174.866139,96.1486725 L175.027724,96.2791585 L175.274539,95.4412762 C175.274539,95.4412762 175.394096,95.5212762 175.577122,95.6012762 C175.75572,95.7032762 176.053875,95.7932762 176.402214,95.9212762 C176.760886,95.9852762 177.177122,96.1412762 177.636162,96.1492762 C178.096679,96.2052762 178.586716,96.2272762 179.078229,96.1692762 C179.575646,96.1672762 180.064207,96.0632762 180.523247,95.9512762 C180.98524,95.8632762 181.41476,95.7512762 181.769004,95.5892762 C182.492251,95.3132762 182.971956,95.1272762 182.971956,95.1272762 L183,95.2172762 C183,95.2172762 182.527675,95.4572762 181.820664,95.8172762 C181.470849,96.0212762 181.045756,96.1832762 180.579336,96.3252762 C180.121771,96.4912762 179.624354,96.6552762 179.115129,96.7152762 C178.610332,96.8312762 178.099631,96.8672762 177.614022,96.8632762 C177.131365,96.9052762 176.682657,96.7952762 176.292989,96.7672762 C175.907749,96.6712762 175.585978,96.6152762 175.349815,96.5132762 C175.330097,96.5065556 175.311261,96.4999963 175.293296,96.4936169 Z" id="Combined-Shape" fill="#C5752F"></path>
                    <path d="M25.5091495,151.127348 C24.2838066,139.511153 18.1166199,85.1916541 9,75.5583478 C9,75.5583478 82.706714,89.6715339 145.269507,68 C145.269507,68 136.118014,117.48407 138.956898,151.176869 C139,151 25.5,151 25.5091495,151.127348 Z" id="Fill-1039" fill="#FFAF0B"></path>
                    <path d="M115.923158,151.184098 C116.783683,127.78352 110.132839,115.564882 110.132839,115.564882 C89.0359799,88.0552009 63.6455122,107.961989 63.6455122,107.961989 C63.6455122,107.961989 45.7296234,117.568431 49.5288658,150.862933 C49.5,151 116,151 115.923158,151.184098 Z" id="Fill-1040" fill="#F9DC91"></path>
                    <path d="M50.058192,65 C49.8703899,65 49.6810609,64.9533492 49.5085272,64.8572204 C49.0092484,64.5744885 48.8504563,63.9722696 49.1542988,63.5114166 C49.2703392,63.3347091 52.0583612,59.1700683 56.3136828,59.0046702 C58.9566544,58.9071277 61.4728977,60.3377511 63.7952315,63.2781628 C64.1402989,63.7163972 64.039527,64.3299254 63.5662045,64.6479988 C63.092882,64.9688995 62.4317574,64.8727706 62.0866901,64.4373635 C60.2086687,62.061002 58.3123251,60.9046285 56.411401,60.9625886 C53.2874728,61.0799223 50.984988,64.4981509 50.9620853,64.5320787 C50.7635952,64.8331882 50.4154742,65 50.058192,65 Z M91.0571386,63 C90.8693268,63 90.6799879,62.9533492 90.5074453,62.8558067 C90.0081406,62.5730748 89.8508672,61.9722694 90.1547254,61.5100026 C90.2707718,61.3332951 93.0589385,57.1700672 97.312954,57.0032553 C99.9606434,56.9226767 102.473963,58.3377501 104.796418,61.2781624 C105.139976,61.7149833 105.039199,62.327098 104.565852,62.6479987 C104.094032,62.9660722 103.431346,62.8727706 103.084734,62.4345361 C101.209669,60.0610014 99.2933768,58.8933184 97.4106772,58.9625877 C94.2881138,59.0770942 91.9839826,62.4967371 91.9626057,62.5320786 C91.7610515,62.8331881 91.4144393,63 91.0571386,63 Z" id="Combined-Shape" fill="#86582B"></path>
                    <path d="M87,17.5 C87,19.4318777 82.9703529,21 78.0022741,21 C73.0281311,21 69,19.4318777 69,17.5 C69,15.5665939 73.0281311,14 78.0022741,14 C82.9703529,14 87,15.5665939 87,17.5 Z M66,22 C66,23.6566685 63.3131909,25 60,25 C56.6868091,25 54,23.6566685 54,22 C54,20.3433315 56.6868091,19 60,19 C63.3131909,19 66,20.3433315 66,22 Z M86,26 C86,27.1037736 83.9855305,28 81.4983923,28 C79.0176849,28 77,27.1037736 77,26 C77,24.8962264 79.0176849,24 81.4983923,24 C83.9855305,24 86,24.8962264 86,26 Z" id="Combined-Shape" fill="#EA9B2E"></path>
                </g>
            </g>
        </g>
    </g>
</svg>